<svg id="Camada_1" data-name="Camada 1" xmlns="http://www.w3.org/2000/svg" viewBox="0 0 927.01 181.63"><path d="M168.6,35.75a44.13,44.13,0,0,1,11.28-14.32A82.05,82.05,0,0,1,197.3,10H139.49a65.25,65.25,0,0,0-21.73,3.74q-10.67,3.74-14.35,10.19L79.22,67.74H64.05l27.06-49q4.1-9,20.09-13.42A126.68,126.68,0,0,1,144.82.92H233l-.41.25h44.69L226,94.83H136.21A153.87,153.87,0,0,0,119.6,99q-6.36,2.06-12.91,8.38t-12.3,18.45L69,172.49H192v9H64.05v.25H.5l32.8-60.63q7.38-15,24.6-24.76A79.71,79.71,0,0,1,96,86.06h10.66l34.44-.26ZM410.09,150.81q-9,16.26-24.19,23.09t-42.23,6.84H214.52l79.13-146a78.44,78.44,0,0,1,11.89-16Q312.1,12,330.75,6.08T382.62.14H492.09ZM425.67,9.17q-9.84,0-21.53,5.81t-20.7,20.25L309.23,171.71h38.95q36.07,0,49.2-24.77L472,9.17ZM609.76,35.75A44.23,44.23,0,0,1,621,21.43,82.38,82.38,0,0,1,638.46,10H580.65a65.25,65.25,0,0,0-21.73,3.74q-10.67,3.74-14.35,10.19L520.38,67.74H505.21l27.06-49q4.1-9,20.09-13.42A126.68,126.68,0,0,1,586,.92h88.15l-.41.25h44.69L667.16,94.83H577.37A153.87,153.87,0,0,0,560.76,99q-6.36,2.06-12.91,8.38t-12.3,18.45l-25.42,46.7h123v9H505.21v.25H441.66l32.8-60.63q7.38-15,24.6-24.76a79.71,79.71,0,0,1,38.13-10.32h10.66l34.44-.26ZM655.68,181l34-62.69h15.17L675.77,172h68.88l35.67-65.79Q779.49,99.73,776,97t-11.27-2.71H718.82v-9h53.3q9.42-.25,14.35-1.93T796.72,76l22.14-41q7.78-15.22,28.7-25.8H791.8A70.47,70.47,0,0,0,770.27,13q-10.46,3.62-14.55,10.32l-20.5,37.15H720.05L743.42,18.2q4.1-9,20.09-13.41A126.27,126.27,0,0,1,797.13.4H927.51L887.33,74.45Q880,89.15,852.48,91q14.34,7,14.35,16.51a19.76,19.76,0,0,1-1.64,7.74L829.52,181Z" transform="translate(-0.5 -0.14)"/></svg>