<?xml version="1.0" encoding="utf-8"?>
<!-- Generator: Adobe Illustrator 24.1.2, SVG Export Plug-In . SVG Version: 6.00 Build 0)  -->
<svg version="1.1" id="Camada_1" xmlns="http://www.w3.org/2000/svg" xmlns:xlink="http://www.w3.org/1999/xlink" x="0px" y="0px"
	 viewBox="0 0 1366 768" style="enable-background:new 0 0 1366 768;" xml:space="preserve">
<g>
	<path d="M147.1,317.6H86.4c-14,0-20.8,12.6-20.8,34.1v64.5c0,21.6,6.9,34.1,20.8,34.1h60.7c14,0,20-12.4,20-34.1v-4.9
		c0-2.1-0.7-3-1.9-3H153c-1.1,0-1.8,0.9-1.8,3v2.8c0,9.8-2.3,12.9-7.5,12.9H90c-5.3,0-8.6-3.4-8.6-12.9v-60.4
		c0-9.6,3.3-12.9,8.6-12.9h53.8c5.3,0,7.4,3.4,7.4,12.9v7.3c0,2.1,0.7,3,1.8,3h12.2c1.2,0,1.9-0.9,1.9-3v-9.4
		C167.1,330.2,161,317.6,147.1,317.6z"/>
	<path d="M255.1,412.9c8.1-4.3,11.8-15.6,11.8-32.3v-28.1c0-21.6-6.2-34.1-20.1-34.1h-73.4c-1.1,0-1.7,0.9-1.7,2.8v125.7
		c0,1.9,0.6,2.8,1.7,2.8h12.4c1.1,0,1.8-0.9,1.8-2.8v-32.1h51.2l12.9,31.9c0.8,1.9,1.6,3,2.9,3h11.3c1.8,0,3-2.1,2-4.7L255.1,412.9z
		 M251.1,378.7c0,9.4-2.5,12.9-7.8,12.9h-55.7v-50.1h55.7c5.3,0,7.8,3.4,7.8,12.8V378.7z"/>
	<path d="M364.7,426.4h-74.5v-30.8H363c1.1,0,1.7-0.9,1.7-2.8v-17.6c0-1.9-0.6-2.8-1.7-2.8h-72.8v-30.8h73.9c1.1,0,1.7-0.9,1.7-2.8
		v-17.6c0-1.9-0.6-2.8-1.7-2.8H276c-1.1,0-1.7,0.9-1.7,2.8v125.7c0,1.9,0.6,2.8,1.7,2.8h88.7c1.1,0,1.7-0.9,1.7-2.8v-17.6
		C366.4,427.3,365.8,426.4,364.7,426.4z"/>
	<path d="M438.4,321.4c-0.7-1.9-1.2-3-2.4-3h-13.3c-1.2,0-1.8,1.1-2.5,3l-48.4,124.5c-0.9,2.3-0.1,3.8,1,3.8h14.4
		c1.4,0,1.8-1.1,2.6-3.2l7.2-18.6h64.5l7.2,18.6c0.8,2.1,1.4,3.2,2.6,3.2h14.5c1.1,0,1.9-1.5,0.9-3.8L438.4,321.4z M405.9,405.2
		l22.7-58.9h1.5l22.7,58.9H405.9z"/>
	<path d="M554.4,318.4h-96c-1.1,0-1.7,0.9-1.7,2.8v17.4c0,1.9,0.6,3,1.7,3h40.3v105.2c0,1.9,0.6,2.8,1.7,2.8h12
		c1.1,0,1.8-0.9,1.8-2.8V341.6h40.2c1.1,0,1.7-1.1,1.7-3v-17.4C556.1,319.3,555.5,318.4,554.4,318.4z"/>
	<path d="M575.3,318.4H563c-1.1,0-1.7,0.9-1.7,2.8v125.7c0,1.9,0.6,2.8,1.7,2.8h12.4c1.1,0,1.8-0.9,1.8-2.8V321.2
		C577.1,319.3,576.5,318.4,575.3,318.4z"/>
	<path d="M696.1,318.4h-14.5c-1.2,0-1.8,1.1-2.6,3.2l-38.7,100.1h-1.5l-38.7-100.1c-0.8-2.1-1.2-3.2-2.6-3.2h-14.4
		c-1.1,0-1.9,1.5-1,3.8l48.4,124.5c0.7,1.9,1.2,3,2.5,3h13.3c1.1,0,1.7-1.1,2.4-3L697,322.1C698,319.9,697.2,318.4,696.1,318.4z"/>
	<path d="M791.5,426.4H717v-30.8h72.8c1.1,0,1.7-0.9,1.7-2.8v-17.6c0-1.9-0.6-2.8-1.7-2.8H717v-30.8H791c1.1,0,1.7-0.9,1.7-2.8
		v-17.6c0-1.9-0.6-2.8-1.7-2.8h-88.1c-1.1,0-1.7,0.9-1.7,2.8v125.7c0,1.9,0.6,2.8,1.7,2.8h88.7c1.1,0,1.7-0.9,1.7-2.8v-17.6
		C793.2,427.3,792.6,426.4,791.5,426.4z"/>
	<path d="M858.7,318h-39.9c-0.5,0-0.8,0.5-0.8,1.4v61.1c0,0.9,0.3,1.4,0.8,1.4h39.9c6.8,0,9.8-6.1,9.8-16.6v-30.6
		C868.5,324.1,865.5,318,858.7,318z M860.8,364.2c0,4.6-1.2,6.3-3.8,6.3h-31.3v-41.2H857c2.6,0,3.8,1.6,3.8,6.2V364.2z"/>
	<path d="M876.3,381.8h43.1c0.5,0,0.8-0.5,0.8-1.4v-8.6c0-0.9-0.3-1.4-0.8-1.4h-36.2v-15h35.4c0.5,0,0.8-0.5,0.8-1.4v-8.6
		c0-0.9-0.3-1.4-0.8-1.4h-35.4v-15h35.9c0.5,0,0.8-0.5,0.8-1.4v-8.6c0-0.9-0.3-1.4-0.8-1.4h-42.8c-0.5,0-0.8,0.5-0.8,1.4v61.1
		C875.5,381.3,875.7,381.8,876.3,381.8z"/>
	<path d="M962.3,370.9h-24.7c-2.3,0-3.7-1.5-4.1-4.7c-0.1-1.3-0.5-2-1.4-2h-4.9c-0.8,0-1.3,0.7-1.3,2c0,10.2,3.1,16,10.8,16h26
		c7.8,0,11.7-5.2,11.7-17.8c0-11.2-3.5-17.9-11.5-18.6l-24.7-2.2c-3.9-0.4-4.6-3.8-4.6-7.8c0-4.9,1.5-6.8,4.5-6.8h23.9
		c2.2,0,3.7,1.5,4,4.7c0.2,1.3,0.6,2,1.4,2h4.9c0.9,0,1.3-0.7,1.3-2c0-10.2-3.1-16-10.7-16h-25.2c-7.8,0-11.7,5.2-11.7,17.8
		c0,11.2,3.5,17.9,11.5,18.6l24.7,2.2c3.9,0.4,4.7,3.8,4.7,7.8C966.8,368.9,965.3,370.9,962.3,370.9z"/>
	<path d="M989.1,380.4v-61.1c0-0.9-0.3-1.4-0.9-1.4h-6c-0.5,0-0.8,0.5-0.8,1.4v61.1c0,0.9,0.3,1.4,0.8,1.4h6
		C988.7,381.8,989.1,381.3,989.1,380.4z"/>
	<path d="M1045.4,365.6v-15.4c0-1.2-0.4-1.9-1.2-1.9h-21.7c-0.8,0-1.2,0.6-1.2,2v7.3c0,1.3,0.4,2,1.2,2h15.2v5
		c0,4.6-1.2,6.3-3.8,6.3h-25.9c-2.6,0-4.2-1.6-4.2-6.3v-29.4c0-4.7,1.6-6.3,4.2-6.3h26c2.6,0,3.6,1.6,3.6,6.3v3.6
		c0,1,0.3,1.5,0.9,1.5h5.9c0.6,0,0.9-0.5,0.9-1.5v-4.6c0-10.5-3-16.6-9.7-16.6h-29.4c-6.8,0-10.1,6.1-10.1,16.6v31.4
		c0,10.5,3.3,16.6,10.1,16.6h29.4C1042.4,382.2,1045.4,376.1,1045.4,365.6z"/>
	<path d="M1099.4,381.8c0.5,0,0.8-0.5,0.8-1.4v-61.1c0-0.9-0.3-1.4-0.8-1.4h-6c-0.5,0-0.9,0.5-0.9,1.4v47.4h-0.7l-30.4-47.8
		c-0.5-0.6-0.7-1-1.2-1h-7.3c-0.5,0-0.8,0.5-0.8,1.4v61.1c0,0.9,0.3,1.4,0.8,1.4h6c0.5,0,0.9-0.5,0.9-1.4V333h0.7l30.4,47.8
		c0.5,0.6,0.7,1,1.2,1H1099.4z"/>
	<path d="M1108.2,381.8h43.1c0.5,0,0.8-0.5,0.8-1.4v-8.6c0-0.9-0.3-1.4-0.8-1.4h-36.2v-15h35.4c0.5,0,0.8-0.5,0.8-1.4v-8.6
		c0-0.9-0.3-1.4-0.8-1.4h-35.4v-15h35.9c0.5,0,0.8-0.5,0.8-1.4v-8.6c0-0.9-0.3-1.4-0.8-1.4h-42.8c-0.5,0-0.8,0.5-0.8,1.4v61.1
		C1107.4,381.3,1107.7,381.8,1108.2,381.8z"/>
	<path d="M1205.6,379.5l-6.2-15.6c3.9-2.1,5.7-7.6,5.7-15.7v-13.7c0-10.5-3-16.6-9.8-16.6h-35.7c-0.5,0-0.8,0.5-0.8,1.4v61.1
		c0,0.9,0.3,1.4,0.8,1.4h6c0.5,0,0.9-0.5,0.9-1.4v-15.6h24.9l6.3,15.5c0.4,0.9,0.8,1.5,1.4,1.5h5.5
		C1205.5,381.8,1206.1,380.8,1205.6,379.5z M1197.4,347.3c0,4.6-1.2,6.3-3.8,6.3h-27.1v-24.3h27.1c2.6,0,3.8,1.6,3.8,6.2V347.3z"/>
	<path d="M858.7,385.8h-39.9c-0.5,0-0.8,0.5-0.8,1.4v61.1c0,0.9,0.3,1.4,0.8,1.4h39.9c6.8,0,9.8-6.1,9.8-16.6v-30.6
		C868.5,392,865.5,385.8,858.7,385.8z M860.8,432.1c0,4.6-1.2,6.3-3.8,6.3h-31.3v-41.2H857c2.6,0,3.8,1.6,3.8,6.2V432.1z"/>
	<path d="M919.6,438.4h-36.2v-15h35.4c0.5,0,0.8-0.5,0.8-1.4v-8.6c0-0.9-0.3-1.4-0.8-1.4h-35.4v-15h35.9c0.5,0,0.8-0.5,0.8-1.4v-8.6
		c0-0.9-0.3-1.4-0.8-1.4h-42.8c-0.5,0-0.8,0.5-0.8,1.4v61.1c0,0.9,0.3,1.4,0.8,1.4h43.1c0.5,0,0.8-0.5,0.8-1.4v-8.6
		C920.4,438.8,920.1,438.4,919.6,438.4z"/>
	<path d="M981.5,385.8h-7.1c-0.6,0-0.9,0.5-1.3,1.6l-18.8,48.7h-0.7l-18.8-48.7c-0.4-1-0.6-1.6-1.3-1.6h-7c-0.5,0-0.9,0.7-0.5,1.8
		l23.5,60.5c0.3,0.9,0.6,1.5,1.2,1.5h6.5c0.5,0,0.8-0.5,1.1-1.5l23.5-60.5C982.5,386.6,982.1,385.8,981.5,385.8z"/>
	<path d="M1032.1,438.4h-36.2v-15h35.4c0.5,0,0.8-0.5,0.8-1.4v-8.6c0-0.9-0.3-1.4-0.8-1.4h-35.4v-15h35.9c0.5,0,0.8-0.5,0.8-1.4
		v-8.6c0-0.9-0.3-1.4-0.8-1.4H989c-0.5,0-0.8,0.5-0.8,1.4v61.1c0,0.9,0.3,1.4,0.8,1.4h43.1c0.5,0,0.8-0.5,0.8-1.4v-8.6
		C1033,438.8,1032.7,438.4,1032.1,438.4z"/>
	<path d="M1084.7,438.4h-36.4v-51.2c0-0.9-0.3-1.4-0.9-1.4h-6c-0.5,0-0.8,0.5-0.8,1.4v61.1c0,0.9,0.3,1.4,0.8,1.4h43.3
		c0.5,0,0.8-0.5,0.8-1.4v-8.5C1085.5,438.9,1085.2,438.4,1084.7,438.4z"/>
	<path d="M1131,385.5h-29c-6.8,0-10.1,6.1-10.1,16.6v31.4c0,10.5,3.3,16.6,10.1,16.6h29c6.8,0,10.2-6.1,10.2-16.6v-31.4
		C1141.2,391.6,1137.8,385.5,1131,385.5z M1133.5,432.4c0,4.6-1.6,6.3-4.2,6.3h-25.6c-2.6,0-4.2-1.6-4.2-6.3v-29.4
		c0-4.6,1.6-6.3,4.2-6.3h25.6c2.6,0,4.2,1.6,4.2,6.3V432.4z"/>
	<path d="M1184.8,385.8h-35.7c-0.5,0-0.8,0.5-0.8,1.4v61.1c0,0.9,0.3,1.4,0.8,1.4h6c0.5,0,0.9-0.5,0.9-1.4v-11.7h28.8
		c6.8,0,9.8-6.1,9.8-16.6v-17.6C1194.6,392,1191.6,385.8,1184.8,385.8z M1186.9,419.1c0,4.6-1.2,6.3-3.8,6.3h-27.1v-28.3h27.1
		c2.6,0,3.8,1.6,3.8,6.2V419.1z"/>
	<path d="M1245.7,438.4h-36.2v-15h35.4c0.5,0,0.8-0.5,0.8-1.4v-8.6c0-0.9-0.3-1.4-0.8-1.4h-35.4v-15h35.9c0.5,0,0.8-0.5,0.8-1.4
		v-8.6c0-0.9-0.3-1.4-0.8-1.4h-42.8c-0.5,0-0.8,0.5-0.8,1.4v61.1c0,0.9,0.3,1.4,0.8,1.4h43.1c0.5,0,0.8-0.5,0.8-1.4v-8.6
		C1246.5,438.8,1246.3,438.4,1245.7,438.4z"/>
	<path d="M1300.2,447.4l-6.2-15.6c3.9-2.1,5.7-7.6,5.7-15.7v-13.7c0-10.5-3-16.6-9.8-16.6h-35.7c-0.5,0-0.8,0.5-0.8,1.4v61.1
		c0,0.9,0.3,1.4,0.8,1.4h6c0.5,0,0.9-0.5,0.9-1.4v-15.6h24.9l6.3,15.5c0.4,0.9,0.8,1.5,1.4,1.5h5.5
		C1300.1,449.7,1300.7,448.7,1300.2,447.4z M1292,415.2c0,4.6-1.2,6.3-3.8,6.3h-27.1v-24.3h27.1c2.6,0,3.8,1.6,3.8,6.2V415.2z"/>
</g>
</svg>
