<svg xmlns="http://www.w3.org/2000/svg" viewBox="0 0 1081.48 347.77"><g id="Layer_1" data-name="Layer 1"><path d="M825,314c-181.14-60.2-375.35-91.56-484.86-77.19-2.08.27-4.11.56-6.11.87-10-6.7-13.16-17-16.6-33.07-8.93,41.91-16.17,44.26-145.56,47.15,51.64,1.16,83.81,2.23,104.41,5.76-35.44,26.2-30,53.23,47.35,104.14a2.23,2.23,0,0,0,2.49.13l3.56-2.42c1.27-.86,1.12-3.06-.3-4.29-60-52.11-26.22-77.15,72.94-90.16C507.65,251.1,666,274,819,320ZM317.43,272.06c-3.84-18-7-19.05-62.65-20.3,55.69-1.24,58.81-2.25,62.65-20.3,3.85,18,7,19.06,62.66,20.3C324.4,253,321.28,254,317.43,272.06Z" transform="translate(-171.87 -204.61)"/><path d="M525.35,294.83c-1.82,8.54-3.3,9-29.65,9.6,26.35.59,27.83,1.07,29.65,9.61,1.82-8.54,3.29-9,29.65-9.61C528.64,303.85,527.17,303.37,525.35,294.83Zm0,14c-.84-3.93-1.52-4.15-13.65-4.43,12.13-.27,12.81-.49,13.65-4.42.84,3.93,1.51,4.15,13.65,4.42C526.86,304.71,526.19,304.93,525.35,308.86Z" transform="translate(-171.87 -204.61)"/><path d="M551.65,267.35c-2.62,12.29-4.74,13-42.68,13.82,37.94.85,40.06,1.54,42.68,13.83,2.62-12.29,4.74-13,42.68-13.83C556.39,280.33,554.27,279.64,551.65,267.35Zm0,19.65c-1.1-5.18-2-5.47-18-5.83,16-.35,16.88-.64,18-5.82,1.11,5.18,2,5.47,18,5.82C553.65,281.53,552.76,281.82,551.65,287Z" transform="translate(-171.87 -204.61)"/><path d="M1117.74,485c15.47-24.54-6.52-57-64.28-91.06a2.41,2.41,0,0,0-2.47,0l-3.9,2.35a2.36,2.36,0,0,0-.29,3.83c52.88,43.56,31.2,83-69.84,99.79-107.32,17.89-273.89,5.29-420.69-28l-.54,4.45s0,0,0,0c173,44.48,368,64.05,479.58,45.46a265.21,265.21,0,0,0,39.22-9.31c24,5.83,28.37,16.92,33.24,39.79,8.94-41.91,16.18-44.26,145.57-47.15C1160.52,503.14,1130.56,501.35,1117.74,485Zm-10,40.5c-3.84-18-7-19.06-62.66-20.3,55.7-1.25,58.82-2.26,62.66-20.3,3.85,18,7,19.05,62.66,20.3C1114.74,506.46,1111.63,507.47,1107.78,525.52Z" transform="translate(-171.87 -204.61)"/><path d="M934.52,504.74c2-9.35,3.61-9.88,32.48-10.52-28.87-.65-30.49-1.17-32.48-10.52-2,9.35-3.61,9.87-32.48,10.52C930.91,494.86,932.53,495.39,934.52,504.74Zm0-14.31c.72,3.37,1.3,3.56,11.68,3.79-10.38.23-11,.42-11.68,3.78-.71-3.36-1.3-3.55-11.68-3.78C933.22,494,933.81,493.8,934.52,490.43Z" transform="translate(-171.87 -204.61)"/><path d="M892.83,493c1.44-6.76,2.61-7.14,23.48-7.61-20.87-.47-22-.84-23.48-7.61-1.45,6.77-2.61,7.14-23.49,7.61C890.22,485.86,891.38,486.24,892.83,493Zm0-10.9c.62,2.93,1.13,3.09,10.17,3.29-9,.2-9.55.37-10.17,3.3-.63-2.93-1.13-3.1-10.18-3.3C891.7,485.19,892.2,485,892.83,482.1Z" transform="translate(-171.87 -204.61)"/></g><g id="Camada_1" data-name="Camada 1"><g id="Camada_2" data-name="Camada 2"><path d="M1067.55,399.87a15.58,15.58,0,0,0-3.37-4.52,8.13,8.13,0,0,0-.83-.83,9.07,9.07,0,0,0-.82-.82,9.07,9.07,0,0,0-.82-.82,8.13,8.13,0,0,0-.83-.83,10200434319610.52,10200434319610.52,0,0,1-1.64-1.64,9.29,9.29,0,0,0-.83-.83,9.07,9.07,0,0,0-.82-.82,8.13,8.13,0,0,0-.83-.83,7.93,7.93,0,0,0-.82-.82,9.07,9.07,0,0,0-.82-.82,8.13,8.13,0,0,0-.83-.83,7.93,7.93,0,0,0-.82-.82,9.07,9.07,0,0,0-.82-.82,8.13,8.13,0,0,0-.83-.83,9,9,0,0,0-6.92-3h-15.2a17.87,17.87,0,0,0-8.26,2.12,20.57,20.57,0,0,0-6.6,5.35q-.62.73-1.08,1.35l-.07-.06a96.26,96.26,0,0,1-1.65-1.65,9.07,9.07,0,0,0-.82-.82,8.13,8.13,0,0,0-.83-.83,7.93,7.93,0,0,0-.82-.82,9.07,9.07,0,0,0-.82-.82,8.13,8.13,0,0,0-.83-.83,9,9,0,0,0-6.92-3H985.8a17.87,17.87,0,0,0-8.26,2.12,20.77,20.77,0,0,0-6.61,5.36c-.41.48-.77.93-1.07,1.34-.05.07-.11.15-.15.22l-6.23,9.22c-.23-.24-.46-.47-.7-.69s-.54-.56-.82-.82-.54-.56-.83-.83a12.32,12.32,0,0,0-9.5-3.92h-51a18.36,18.36,0,0,0-9.14,2.54,20.45,20.45,0,0,0-7,6.5l-8,11.77A9.28,9.28,0,0,0,870,410.3h-1.09l.59-.88a10.42,10.42,0,0,0,1.37-9.55,15.58,15.58,0,0,0-3.37-4.52,8.13,8.13,0,0,0-.83-.83,7.93,7.93,0,0,0-.82-.82,9.07,9.07,0,0,0-.82-.82,8.13,8.13,0,0,0-.83-.83,7.93,7.93,0,0,0-.82-.82,9.07,9.07,0,0,0-.82-.82,8.13,8.13,0,0,0-.83-.83,7.93,7.93,0,0,0-.82-.82,9.18,9.18,0,0,0-.82-.83,8,8,0,0,0-.83-.82,9.07,9.07,0,0,0-.82-.82,9.18,9.18,0,0,0-.82-.83,8,8,0,0,0-.83-.82,9.07,9.07,0,0,0-.82-.82,8.13,8.13,0,0,0-.83-.83,9,9,0,0,0-6.92-3h-.7a9.84,9.84,0,0,0-.42-1.54,9,9,0,0,0-2.5-3.65,7.93,7.93,0,0,0-.82-.82,9.18,9.18,0,0,0-.82-.83l-.05-.05,25.48-37.69a10.44,10.44,0,0,0,1.37-9.56,9,9,0,0,0-2.55-3.69,9.07,9.07,0,0,0-.82-.82,8.13,8.13,0,0,0-.83-.83,9.07,9.07,0,0,0-.82-.82,96.26,96.26,0,0,1-1.65-1.65,9.07,9.07,0,0,0-.82-.82,96.26,96.26,0,0,1-1.65-1.65,9.07,9.07,0,0,0-.82-.82,96.26,96.26,0,0,1-1.65-1.65,9.07,9.07,0,0,0-.82-.82,8.13,8.13,0,0,0-.83-.83,9.07,9.07,0,0,0-.82-.82,9.07,9.07,0,0,0-.82-.82A8.13,8.13,0,0,0,854,309a9,9,0,0,0-6.92-3h-15.2a17.87,17.87,0,0,0-8.26,2.12,20.87,20.87,0,0,0-6.61,5.35c-.41.49-.76.94-1.07,1.34l-.16.23-6.11,9c-.15-.16-.31-.3-.47-.45a9.07,9.07,0,0,0-.82-.82c-.26-.29-.54-.56-.82-.82a12.32,12.32,0,0,0-9.55-4H747a18.25,18.25,0,0,0-9.14,2.54,20.92,20.92,0,0,0-4.91,3.92l-.11-.1c-.26-.29-.54-.56-.82-.82a96.26,96.26,0,0,1-1.65-1.65,12.35,12.35,0,0,0-9.47-3.89h-51a18.25,18.25,0,0,0-9.14,2.54,20.46,20.46,0,0,0-6.95,6.5l-8,11.77a9.28,9.28,0,0,0-6.59-2.51h-1.09l.59-.88a10.44,10.44,0,0,0,1.37-9.56,9,9,0,0,0-2.55-3.69,9.07,9.07,0,0,0-.82-.82,8.13,8.13,0,0,0-.83-.83,7.93,7.93,0,0,0-.82-.82,9.07,9.07,0,0,0-.82-.82,8.13,8.13,0,0,0-.83-.83,7.93,7.93,0,0,0-.82-.82,9.07,9.07,0,0,0-.82-.82,8.13,8.13,0,0,0-.83-.83,9.07,9.07,0,0,0-.82-.82,7.93,7.93,0,0,0-.82-.82,7.23,7.23,0,0,0-.83-.83,9.07,9.07,0,0,0-.82-.82,96.26,96.26,0,0,0-1.65-1.65,9.07,9.07,0,0,0-.82-.82,8.13,8.13,0,0,0-.83-.83,9,9,0,0,0-6.92-3h-15.2a17.87,17.87,0,0,0-8.26,2.12,20.84,20.84,0,0,0-6.6,5.35c-.41.49-.77.93-1.07,1.34l-.16.23-3.87,5.72a9.13,9.13,0,0,0-7.1-3.06h-57.5a18.17,18.17,0,0,0-9,2.54,21.56,21.56,0,0,0-5.08,4.06c-.24-.25-.48-.49-.73-.72a9.29,9.29,0,0,0-.83-.83,10.57,10.57,0,0,0-.82-.82,12.32,12.32,0,0,0-9.51-3.93h-51a16.68,16.68,0,0,0-3,.27,1.29,1.29,0,0,0-.17-.16,96.26,96.26,0,0,0-1.65-1.65,10.57,10.57,0,0,0-.82-.82,96.26,96.26,0,0,0-1.65-1.65,10.57,10.57,0,0,0-.82-.82c-.26-.29-.54-.57-.82-.83a10.7,10.7,0,0,0-.83-.82,10.57,10.57,0,0,0-.82-.82c-.26-.29-.54-.57-.82-.83a12.38,12.38,0,0,0-9.45-3.87h-51a18.08,18.08,0,0,0-9.21,2.62,20.91,20.91,0,0,0-6.87,6.4l-9.46,13.9a10.65,10.65,0,0,0-1.65,8.74,22.65,22.65,0,0,0-2.38,1.16,20.19,20.19,0,0,0-7,6.53L314,372.49a10.19,10.19,0,0,0-1.52,9.65,8.83,8.83,0,0,0,2.53,3.67,9.07,9.07,0,0,0,.82.82,96.26,96.26,0,0,1,1.65,1.65,9.07,9.07,0,0,0,.82.82,96.26,96.26,0,0,1,1.65,1.65,9.07,9.07,0,0,0,.82.82,8,8,0,0,0,.83.82,9.18,9.18,0,0,0,.82.83,9.07,9.07,0,0,0,.82.82,8,8,0,0,0,.83.82,9.18,9.18,0,0,0,.82.83,9.07,9.07,0,0,0,.82.82,9.29,9.29,0,0,0,.83.83,9.07,9.07,0,0,0,.82.82,8,8,0,0,0,.83.82,9.12,9.12,0,0,0,7,3h18.5a11.83,11.83,0,0,0,6.08-1.74,14,14,0,0,0,4.33-4l3.79-5.61.1.09c.1.11.2.23.31.34a6.15,6.15,0,0,0,.52.48c.1.11.19.23.3.34s.33.32.52.48l.3.35c.16.15.33.32.52.48s.2.23.31.34a6.15,6.15,0,0,0,.52.48c.1.12.19.23.3.34l.52.49c.1.11.2.23.31.34l.51.48c.11.11.2.23.31.34s.33.32.52.48.19.23.3.34l.52.49c.1.11.2.23.31.34l.51.48c.11.11.2.23.31.34s.33.32.52.48l.3.34a9.2,9.2,0,0,0,6.76,2.69h18.4a12.08,12.08,0,0,0,7.09-2.35,9.32,9.32,0,0,0,6.41,2.35H467.9a9,9,0,0,0,.76.75,7.93,7.93,0,0,0,.82.82,9.07,9.07,0,0,0,.82.82,8.13,8.13,0,0,0,.83.83,7.93,7.93,0,0,0,.82.82,10.7,10.7,0,0,0,.82.83,8,8,0,0,0,.83.82,7.93,7.93,0,0,0,.82.82,9.18,9.18,0,0,0,.82.83,8,8,0,0,0,.83.82,11.79,11.79,0,0,0,7.86,3.84h15.2a17.64,17.64,0,0,0,8.25-2.14,22,22,0,0,0,6.56-5.28,13,13,0,0,0,1.29-1.78l10.59-15.4h1.45c-2.3,3.38-19.87,29.3-19.89,29.33a10.65,10.65,0,0,0-1.65,8.74,22.61,22.61,0,0,0-2.37,1.17,21.44,21.44,0,0,0-7.06,6.52l-7.62,11.34a10.17,10.17,0,0,0-1.52,9.64,9,9,0,0,0,2.53,3.67,8,8,0,0,0,.83.82,7.93,7.93,0,0,0,.82.82,9.18,9.18,0,0,0,.82.83,8,8,0,0,0,.83.82,9.07,9.07,0,0,0,.82.82,9.18,9.18,0,0,0,.82.83,8,8,0,0,0,.83.82,9.07,9.07,0,0,0,.82.82,8.13,8.13,0,0,0,.83.83,7.06,7.06,0,0,0,.82.82,10.7,10.7,0,0,0,.82.83,8,8,0,0,0,.83.82,7.93,7.93,0,0,0,.82.82,9.18,9.18,0,0,0,.82.83,8,8,0,0,0,.83.82,7.93,7.93,0,0,0,.82.82,9.13,9.13,0,0,0,7,3h57.5a17.9,17.9,0,0,0,9.11-2.62,22,22,0,0,0,2.38-1.61c.14.14.29.26.44.39a7.93,7.93,0,0,0,.82.82,9,9,0,0,0,7,3h57.5a18.21,18.21,0,0,0,9.12-2.6,22.65,22.65,0,0,0,2.34-1.56c.11.12.24.21.36.32a9.17,9.17,0,0,0,.83.82,9,9,0,0,0,7,3h57.5a17.81,17.81,0,0,0,8.26-2.12,20.57,20.57,0,0,0,6.6-5.35l.1-.11.5.47a9.07,9.07,0,0,0,.82.82,8.13,8.13,0,0,0,.83.83,9.07,9.07,0,0,0,.82.82,9.07,9.07,0,0,0,.82.82,8.13,8.13,0,0,0,.83.83,9,9,0,0,0,6.92,3h22a5.6,5.6,0,0,0,1.09-.1h8.45a12.07,12.07,0,0,0,6.06-1.7,13.09,13.09,0,0,0,4.09-3.69h0a8,8,0,0,0,.82.83,9.07,9.07,0,0,0,.82.82,8,8,0,0,0,.83.82,9.13,9.13,0,0,0,7,3h18.5a12.07,12.07,0,0,0,6.06-1.7,12.77,12.77,0,0,0,4.46-4.2l1.36-2a9.32,9.32,0,0,0,.77.77,9.07,9.07,0,0,0,.82.82,96.26,96.26,0,0,1,1.65,1.65,9.07,9.07,0,0,0,.82.82,8,8,0,0,0,.83.82,9.12,9.12,0,0,0,7,3h18.5a12.07,12.07,0,0,0,6.06-1.7,14.81,14.81,0,0,0,1.83-1.26,9.16,9.16,0,0,0,7,3h57.4a18.21,18.21,0,0,0,9.12-2.6,23.78,23.78,0,0,0,2.34-1.56c.11.12.24.21.36.32a9.17,9.17,0,0,0,.83.82,9,9,0,0,0,7,3h22a5.6,5.6,0,0,0,1.09-.1h8.45a12,12,0,0,0,6.05-1.7l.36-.21a9.31,9.31,0,0,0,6,2h22a5.6,5.6,0,0,0,1.09-.1h8.45a12,12,0,0,0,6-1.7,12.89,12.89,0,0,0,4.47-4.2l5.25-7.77a10.35,10.35,0,0,0,1.58-9.77,9,9,0,0,0-2.5-3.65,7.93,7.93,0,0,0-.82-.82,9.18,9.18,0,0,0-.82-.83l0-.06,25.48-37.68A10.42,10.42,0,0,0,1067.55,399.87ZM820.77,318.4c.24-.33.54-.7.88-1.1a14.67,14.67,0,0,1,4.73-3.85,11.91,11.91,0,0,1,5.51-1.45h15.2a2.9,2.9,0,0,1,3,1.95,4.48,4.48,0,0,1-.74,4.15l-31.44,46.5h6.4a3,3,0,0,1,3.12,1.95,4.53,4.53,0,0,1-.87,4.25l-5.34,7.9a7,7,0,0,1-2.45,2.3,6.16,6.16,0,0,1-3.07.9h-9.5l0,.1h-22a2.9,2.9,0,0,1-3-1.95,4.45,4.45,0,0,1,.74-4.15l20.55-30.4Zm-84.87,12a14.49,14.49,0,0,1,5-4.65A12.22,12.22,0,0,1,747,324h51c3.14,0,5.19,1.28,6.17,3.85s.43,5.38-1.64,8.45l-15.82,23.4a14.89,14.89,0,0,1-5,4.6,12.1,12.1,0,0,1-6.17,1.8h-31.7a1.51,1.51,0,0,1-1.57-1,2.27,2.27,0,0,1,.45-2.15l1.05-1.6a7.79,7.79,0,0,1,2.58-2.4,6.16,6.16,0,0,1,3.07-.9h7a6.23,6.23,0,0,0,3-.85,7.41,7.41,0,0,0,2.57-2.35l1-1.5a2.39,2.39,0,0,0,.33-2.1,1.48,1.48,0,0,0-1.56-1h-11.3a5.85,5.85,0,0,0-3,.9,7.93,7.93,0,0,0-2.53,2.4l-8.37,12.3a2.92,2.92,0,0,0-.55,2.75,2,2,0,0,0,2.06,1.25h35.7a2.75,2.75,0,0,1,2.88,1.8,4.14,4.14,0,0,1-.76,3.9,14.74,14.74,0,0,1-5,4.6,12.26,12.26,0,0,1-6.13,1.8h-57.4a3,3,0,0,1-3.12-1.95,4.45,4.45,0,0,1,.74-4.15Zm-75.92,39a1.37,1.37,0,0,0,1.28.65H673a6,6,0,0,0,3.11-.9,8.11,8.11,0,0,0,2.5-2.3l4.56-6.8a4.42,4.42,0,0,0,.86-4.2,3,3,0,0,0-3.15-1.9h-31.5a3,3,0,0,1-3.12-1.95,4.51,4.51,0,0,1,.88-4.25l11.7-17.3a14.54,14.54,0,0,1,5-4.65,12.28,12.28,0,0,1,6.16-1.75h51c3.14,0,5.19,1.28,6.17,3.85s.43,5.38-1.64,8.45l-26.54,39.3a14.74,14.74,0,0,1-5,4.6,12.26,12.26,0,0,1-6.13,1.8h-57.4a3,3,0,0,1-3.12-1.95,4.45,4.45,0,0,1,.74-4.15l7.62-11.3a15.87,15.87,0,0,1,5.08-4.7,12,12,0,0,1,6.08-1.8h30.3a1.47,1.47,0,0,1,1.55,1,2.24,2.24,0,0,1-.43,2.1L677,362.9a7,7,0,0,1-2.45,2.3,6.1,6.1,0,0,1-3.06.9h-9a2.73,2.73,0,0,0-1.47.5,2.33,2.33,0,0,0-1,1.2A1.61,1.61,0,0,0,660,369.35Zm-68.81-51c.25-.33.54-.7.88-1.1a14.7,14.7,0,0,1,4.74-3.85,11.84,11.84,0,0,1,5.5-1.45h15.2a2.9,2.9,0,0,1,3,1.95,4.45,4.45,0,0,1-.74,4.15l-16.3,24.2h35.8a3,3,0,0,1,3.13,1.95,4.33,4.33,0,0,1-.85,4.15L621,378.8a6.88,6.88,0,0,1-2.45,2.3,6.1,6.1,0,0,1-3.06.9H597a3,3,0,0,1-3.12-1.95,4.45,4.45,0,0,1,.74-4.15l9.9-14.7a8,8,0,0,1,2.55-2.3,6.1,6.1,0,0,1,3.06-.9h13.6a2.59,2.59,0,0,0,1.68-.65,2.69,2.69,0,0,0,1-1.45,1.23,1.23,0,0,0-.15-1.3,1.52,1.52,0,0,0-1.22-.5h-29.5L578.7,378.8a6.93,6.93,0,0,1-2.44,2.3,6.16,6.16,0,0,1-3.07.9h-18.5a3,3,0,0,1-3.12-1.95,4.48,4.48,0,0,1,.74-4.15ZM394.68,354.1l-.47,21.8a5.58,5.58,0,0,1-2,4.15,6.46,6.46,0,0,1-4.48,1.95h-18.4a3.35,3.35,0,0,1-2.49-.9,3.2,3.2,0,0,1-.9-2.3l.48-24.7h-4.5L345.2,378.8a8.11,8.11,0,0,1-2.5,2.3,5.82,5.82,0,0,1-3,.9h-18.5a3,3,0,0,1-3.12-1.95,4.35,4.35,0,0,1,.84-4.15l18.34-27.2a14.35,14.35,0,0,1,5-4.65,12.36,12.36,0,0,1,6.11-1.75H401a2.59,2.59,0,0,0,1.68-.65,2.69,2.69,0,0,0,1-1.45,1.17,1.17,0,0,0-.2-1.3,1.57,1.57,0,0,0-1.17-.5h-51.5a3,3,0,0,1-3.13-1.95,4.64,4.64,0,0,1,.78-4.25l9.39-13.8a14.86,14.86,0,0,1,4.94-4.6,12.13,12.13,0,0,1,6.18-1.8h51c3.13,0,5.19,1.28,6.16,3.85s.43,5.38-1.63,8.45L408.6,347.7a14.49,14.49,0,0,1-5,4.65,12.25,12.25,0,0,1-6.15,1.75ZM458.59,382h-57.4a3,3,0,0,1-3.12-1.95,4.48,4.48,0,0,1,.74-4.15l7.62-11.3a15.87,15.87,0,0,1,5.08-4.7,12,12,0,0,1,6.08-1.8h30.3a1.46,1.46,0,0,1,1.55,1,2.22,2.22,0,0,1-.43,2.1l-1.19,1.7a7,7,0,0,1-2.45,2.3,6.1,6.1,0,0,1-3.06.9h-9a2.73,2.73,0,0,0-1.47.5,2.33,2.33,0,0,0-1,1.2,1.64,1.64,0,0,0,0,1.55,1.37,1.37,0,0,0,1.28.65h11.7a6,6,0,0,0,3.11-.9,8.11,8.11,0,0,0,2.5-2.3l4.56-6.8a4.42,4.42,0,0,0,.86-4.2,3,3,0,0,0-3.14-1.9h-31.5A3,3,0,0,1,417,352a4.51,4.51,0,0,1,.88-4.25l11.7-17.3a14.49,14.49,0,0,1,5-4.65,12.22,12.22,0,0,1,6.15-1.75h51c3.14,0,5.19,1.28,6.17,3.85s.43,5.38-1.63,8.45l-26.55,39.3a14.65,14.65,0,0,1-5,4.6A12.26,12.26,0,0,1,458.59,382Zm50.08-12.6-12.52,18.2a6.7,6.7,0,0,1-.78,1.1,16,16,0,0,1-4.79,3.85,11.56,11.56,0,0,1-5.45,1.45h-15.2a3,3,0,0,1-3.13-1.95,4.35,4.35,0,0,1,.84-4.15l16.3-23.9a14.86,14.86,0,0,1,5-4.7,12.13,12.13,0,0,1,6.18-1.8h50.7a2.58,2.58,0,0,0,1.65-.6,2.68,2.68,0,0,0,1-1.5,1.27,1.27,0,0,0-.15-1.3,1.55,1.55,0,0,0-1.23-.5h-49.7a2.93,2.93,0,0,1-3-1.9,4.51,4.51,0,0,1,.76-4.2l11.54-17.4a15.33,15.33,0,0,1,5.06-4.65,12.1,12.1,0,0,1,6.06-1.75h57.5a3,3,0,0,1,3.12,1.95,4.35,4.35,0,0,1-.84,4.15L555.29,363a14.38,14.38,0,0,1-5,4.65,12.33,12.33,0,0,1-6.1,1.75Zm55.86,80.2a15.94,15.94,0,0,1-5,4.6,12,12,0,0,1-6.07,1.8h-57.5a3,3,0,0,1-3.13-1.95,4.35,4.35,0,0,1,.84-4.15l7.66-11.4a15.53,15.53,0,0,1,5.06-4.65,12.1,12.1,0,0,1,6.06-1.75h50.8a2.68,2.68,0,0,0,1.63-.65,2.73,2.73,0,0,0,1-1.55,1.31,1.31,0,0,0-.28-1.2,1.53,1.53,0,0,0-1.23-.5h-49.6a3,3,0,0,1-3.12-1.95,4.64,4.64,0,0,1,.78-4.25l20.07-29.6a14.89,14.89,0,0,1,4.95-4.6,12.1,12.1,0,0,1,6.17-1.8h51c3.14,0,5.19,1.28,6.17,3.85s.43,5.38-1.64,8.45l-7.28,10.9a8,8,0,0,1-2.55,2.3,6.1,6.1,0,0,1-3.06.9h-54.3a2.78,2.78,0,0,0-1.73.65,2.58,2.58,0,0,0-1,1.45,1.4,1.4,0,0,0,.25,1.3,1.52,1.52,0,0,0,1.22.5h43.41c3.2,0,5.28,1.28,6.26,3.85s.43,5.38-1.63,8.45Zm77.2,0a14.78,14.78,0,0,1-5,4.6,12.24,12.24,0,0,1-6.13,1.8H573.1a2.9,2.9,0,0,1-3-1.95,4.48,4.48,0,0,1,.74-4.15l30.83-45.6a15.87,15.87,0,0,1,5.08-4.7,12,12,0,0,1,6.08-1.8h51q4.8,0,6.24,3.9t-1.61,8.4Zm77.1,0c-.26.33-.55.7-.89,1.1a14.67,14.67,0,0,1-4.73,3.85A11.91,11.91,0,0,1,707.7,456H650.2a2.9,2.9,0,0,1-3-1.95,4.48,4.48,0,0,1,.74-4.15l30.83-45.6a15.87,15.87,0,0,1,5.08-4.7,12,12,0,0,1,6.08-1.8H705a3,3,0,0,1,3.12,1.95,4.51,4.51,0,0,1-.88,4.25l-11.6,17a7.59,7.59,0,0,1-2.51,2.35,6,6,0,0,1-3,.85h-12.3a2.65,2.65,0,0,0-1.62.65,2.6,2.6,0,0,0-1,1.45,1.19,1.19,0,0,0,.2,1.3,1.58,1.58,0,0,0,1.18.5H705l16.06-23.8a15.87,15.87,0,0,1,5.08-4.7,12,12,0,0,1,6.07-1.8h15.21a3,3,0,0,1,3.12,1.95,4.51,4.51,0,0,1-.88,4.25Zm55.51-11a3,3,0,0,1,3.13,1.95,4.51,4.51,0,0,1-.88,4.25l-5.34,7.9a7,7,0,0,1-2.45,2.3,6.1,6.1,0,0,1-3.06.9h-9.5l0,.1h-22a2.9,2.9,0,0,1-3-1.95,4.45,4.45,0,0,1,.74-4.15l23-33.9h-4.3a3,3,0,0,1-3.12-1.95,4.6,4.6,0,0,1,.77-4.25l1.77-2.5a6.88,6.88,0,0,1,2.45-2.3,6.1,6.1,0,0,1,3.06-.9h7.4l7.86-11.7c.25-.33.54-.7.88-1.1a14.7,14.7,0,0,1,4.74-3.85,11.84,11.84,0,0,1,5.5-1.45h15.2a2.9,2.9,0,0,1,3,1.95,4.45,4.45,0,0,1-.74,4.15l-8.06,12h12.5a3,3,0,0,1,3.12,1.95,4.35,4.35,0,0,1-.84,4.15l-1.7,2.6a8.11,8.11,0,0,1-2.5,2.3,6,6,0,0,1-3.11.9h-15.5l-15.35,22.6Zm74.93,16.5a6.16,6.16,0,0,1-3.07.9H827.7a3,3,0,0,1-3.12-1.95,4.45,4.45,0,0,1,.74-4.15l9.9-14.7a8,8,0,0,1,2.55-2.3,6.1,6.1,0,0,1,3.06-.9h13.6a2.59,2.59,0,0,0,1.68-.65,2.69,2.69,0,0,0,.95-1.45,1.23,1.23,0,0,0-.15-1.3,1.52,1.52,0,0,0-1.22-.5h-29.5l-16.78,24.7a6.93,6.93,0,0,1-2.44,2.3,6.16,6.16,0,0,1-3.07.9H785.4a3,3,0,0,1-3.12-1.95,4.48,4.48,0,0,1,.74-4.15l38.86-57.5c.25-.33.54-.7.88-1.1a14.7,14.7,0,0,1,4.74-3.85A11.84,11.84,0,0,1,833,386h15.2a2.9,2.9,0,0,1,3,1.95,4.45,4.45,0,0,1-.74,4.15l-16.3,24.2H870a3,3,0,0,1,3.13,1.95,4.33,4.33,0,0,1-.85,4.15l-20.55,30.4A6.93,6.93,0,0,1,849.27,455.1Zm80.35-5.5a14.74,14.74,0,0,1-5,4.6,12.26,12.26,0,0,1-6.13,1.8H861.1a3,3,0,0,1-3.12-1.95,4.45,4.45,0,0,1,.74-4.15l7.62-11.3a15.87,15.87,0,0,1,5.08-4.7,12,12,0,0,1,6.08-1.8h30.3a1.47,1.47,0,0,1,1.55,1,2.24,2.24,0,0,1-.43,2.1l-1.19,1.7a7,7,0,0,1-2.45,2.3,6.1,6.1,0,0,1-3.06.9h-9a2.73,2.73,0,0,0-1.47.5,2.33,2.33,0,0,0-1,1.2,1.61,1.61,0,0,0,0,1.55A1.37,1.37,0,0,0,892,444h11.7a6,6,0,0,0,3.11-.9,8.11,8.11,0,0,0,2.5-2.3l4.56-6.8a4.42,4.42,0,0,0,.86-4.2,3,3,0,0,0-3.15-1.9h-31.5a3,3,0,0,1-3.12-1.95,4.51,4.51,0,0,1,.88-4.25l11.7-17.3a14.54,14.54,0,0,1,5-4.65,12.28,12.28,0,0,1,6.16-1.75h51c3.14,0,5.19,1.28,6.17,3.85s.43,5.38-1.64,8.45Zm45.53,3.1a7,7,0,0,1-2.45,2.3,6.1,6.1,0,0,1-3.06.9h-9.5l0,.1h-22a2.9,2.9,0,0,1-3-1.95,4.45,4.45,0,0,1,.74-4.15l20.55-30.4,18.31-27.1c.25-.33.54-.7.88-1.1a14.7,14.7,0,0,1,4.74-3.85,11.84,11.84,0,0,1,5.5-1.45H1001a2.9,2.9,0,0,1,3,1.95,4.45,4.45,0,0,1-.74,4.15l-31.44,46.5h6.4a3,3,0,0,1,3.12,1.95,4.5,4.5,0,0,1-.87,4.25Zm72-60.6-31.44,46.5h6.4a3,3,0,0,1,3.12,1.95,4.5,4.5,0,0,1-.87,4.25l-5.34,7.9a7,7,0,0,1-2.45,2.3,6.1,6.1,0,0,1-3.06.9H1004l0,.1H982a2.9,2.9,0,0,1-3-1.95,4.45,4.45,0,0,1,.74-4.15l20.55-30.4,18.31-27.1c.24-.33.54-.7.88-1.1a14.67,14.67,0,0,1,4.73-3.85,11.91,11.91,0,0,1,5.51-1.45h15.2a2.9,2.9,0,0,1,3,1.95A4.48,4.48,0,0,1,1047.18,392.1Z" transform="translate(-171.87 -204.61)"/><path d="M624.54,418.71h-14a8.85,8.85,0,0,0-4.38,1.22,9.82,9.82,0,0,0-3.48,3.23l-10.32,15.21a3,3,0,0,0-.56,2.95,2.19,2.19,0,0,0,2.27,1.36h14.17a8.65,8.65,0,0,0,4.32-1.25,10.94,10.94,0,0,0,3.56-3.27L626.34,423a3,3,0,0,0,.47-2.89A2.2,2.2,0,0,0,624.54,418.71Z" transform="translate(-171.87 -204.61)"/></g></g></svg>