<svg id="Camada_1" data-name="Camada 1" xmlns="http://www.w3.org/2000/svg" viewBox="0 0 2618.18 99.12"><path d="M.07,74.08V25.92C.07,9.82,12.27.44,37.07.44h106.2c24.79,0,37.19,9.38,37.19,25.48V74.08c0,16.1-12.4,25.48-37.19,25.48H37.07C12.27,99.56.07,90.18.07,74.08Zm137,8.12c9.4,0,15.2-2.52,15.2-9.66V27.46c0-7.14-5.8-9.66-15.2-9.66H43.47c-9.4,0-15.2,2.52-15.2,9.66V72.54c0,7.14,5.8,9.66,15.2,9.66ZM358.46,26.48v27c0,16.1-11,25.48-35.8,25.48H217.46V96.9c0,1.4-1.2,2.1-3.2,2.1h-22c-2,0-3-.7-3-2.1V3.1c0-1.4,1-2.1,3-2.1h130.4C347.46,1,358.46,10.38,358.46,26.48Zm-28.2,1.4c0-7-4.4-9.52-13.8-9.52h-99v43.4h99c9.4,0,13.8-2.66,13.8-9.66Zm200.6,55.86V96.9q0,2.1-3,2.1H370.26q-3,0-3-2.1V3.1q0-2.1,3-2.1h156.6q3,0,3,2.1V16.26q0,2.1-3,2.1H395.46v23h129.4q3,0,3,2.1V56.58q0,2.1-3,2.1H395.46v23h132.4Q530.86,81.64,530.86,83.74Zm7.8,13.16V3.1q0-2.1,3-2.1h26.6c1.8,0,2.6.56,4.4,1.54L683.86,75.9h2.4V3.1c0-1.4,1.2-2.1,3.2-2.1h22q3,0,3,2.1V96.9q0,2.1-3,2.1h-26.6c-1.8,0-2.6-.56-4.4-1.54L569.26,24.1h-2.4V96.9c0,1.4-1.2,2.1-3.2,2.1h-22Q538.66,99,538.66,96.9Zm372-93.8V16.26q0,2.1-3,2.1H776.26V38.94h129.4q3,0,3,2.1V54.2q0,2.1-3,2.1H776.26V96.9c0,1.4-1.2,2.1-3.2,2.1h-22q-3,0-3-2.1V3.1q0-2.1,3-2.1h156.6Q910.66,1,910.66,3.1Zm2.8,71V25.92c0-16.1,12.2-25.48,37-25.48h106.2c24.8,0,37.2,9.38,37.2,25.48V74.08c0,16.1-12.4,25.48-37.2,25.48H950.46C925.66,99.56,913.46,90.18,913.46,74.08Zm137,8.12c9.4,0,15.2-2.52,15.2-9.66V27.46c0-7.14-5.8-9.66-15.2-9.66h-93.6c-9.4,0-15.2,2.52-15.2,9.66V72.54c0,7.14,5.8,9.66,15.2,9.66ZM1270.05,99h-20a6.64,6.64,0,0,1-5.2-2.24l-23-23.8h-91V96.9c0,1.4-1.2,2.1-3.2,2.1h-22q-3,0-3-2.1V3.1q0-2.1,3-2.1h130.4c24.8,0,35.79,9.38,35.79,25.48v21c0,12.46-6.6,20.86-21,24.08l22.8,23.94C1275.46,97.46,1273.25,99,1270.05,99ZM1130.86,55.74h99c9.4,0,13.8-2.66,13.8-9.66V27.88c0-7-4.4-9.52-13.8-9.52h-99Zm350.79,11.2V72.4c0,17.22-13,26.6-41.8,26.6h-130q-3,0-3-2.1V3.1q0-2.1,3-2.1h129c26,0,37.8,7.84,37.8,25.06v2.52c0,9.1-3.6,15.4-13,18.62V49C1476.05,52.38,1481.65,58.4,1481.65,66.94Zm-46.4-48.58h-100.2V41.18h100.2c8.2,0,13.8-1.4,13.8-10.08V28.16C1449.05,19.06,1443.45,18.36,1435.25,18.36Zm18.8,48.44c0-7.56-5.4-10.08-16.2-10.08h-102.8V81.64h102.8c10.8,0,16.2-2.1,16.2-9.8Zm35.4,6.72V3.1q0-2.1,3-2.1h22c2,0,3.2.7,3.2,2.1V72c0,7.14,4.4,9.66,14,9.66h96c9.6,0,14-2.52,14-9.66V3.1q0-2.1,3-2.1h22c2,0,3.2.7,3.2,2.1V73.52c0,16.1-11,25.48-35.8,25.48h-108.8C1500.45,99,1489.45,89.62,1489.45,73.52Zm366.4-1.26c0,19.32-14.2,27.3-42.6,27.3h-95.2c-28,0-39.4-9-39.4-24.64,0-2,1.6-3.08,4.6-3.08h17.8c3.2,0,4.8,1.12,5.2,3.08,1.4,4.9,6.6,7.28,15,7.28h90.4c11,0,16.6-2.94,16.6-10.5,0-6.16-2.8-11.48-17-12l-90.4-3.36c-29.4-1.12-42.2-11.34-42.2-28.56,0-19.32,14.2-27.3,42.6-27.3h92.2c28,0,39.2,9,39.2,24.64,0,2-1.4,3.08-4.6,3.08h-17.8c-3,0-4.6-1.12-5.2-3.08-1.4-4.9-6.6-7.28-14.8-7.28h-87.4c-11,0-16.6,2.94-16.6,10.5,0,6.16,2.8,11.48,17,12l90.4,3.36C1843.05,44.82,1855.85,55,1855.85,72.26ZM1867.65,1h22c2,0,3.2.7,3.2,2.1V96.9c0,1.4-1.2,2.1-3.2,2.1h-22q-3,0-3-2.1V3.1Q1864.65,1,1867.65,1Zm35,95.9V3.1q0-2.1,3-2.1h26.6c1.8,0,2.6.56,4.4,1.54l111.2,73.36h2.4V3.1c0-1.4,1.2-2.1,3.2-2.1h22q3,0,3,2.1V96.9q0,2.1-3,2.1h-26.6c-1.8,0-2.6-.56-4.4-1.54L1933.25,24.1h-2.4V96.9c0,1.4-1.2,2.1-3.2,2.1h-22Q1902.65,99,1902.65,96.9Zm349.2-13.16V96.9q0,2.1-3,2.1h-157.6q-3,0-3-2.1V3.1q0-2.1,3-2.1h156.6q3,0,3,2.1V16.26q0,2.1-3,2.1h-131.4v23h129.4q3,0,3,2.1V56.58q0,2.1-3,2.1h-129.4v23h132.4Q2251.85,81.64,2251.85,83.74Zm181.4-11.48c0,19.32-14.2,27.3-42.6,27.3h-95.2c-28,0-39.4-9-39.4-24.64,0-2,1.6-3.08,4.6-3.08h17.8c3.2,0,4.8,1.12,5.2,3.08,1.4,4.9,6.6,7.28,15,7.28h90.4c11,0,16.6-2.94,16.6-10.5,0-6.16-2.8-11.48-17-12l-90.4-3.36c-29.4-1.12-42.2-11.34-42.2-28.56,0-19.32,14.2-27.3,42.6-27.3h92.2c28,0,39.2,9,39.2,24.64,0,2-1.4,3.08-4.6,3.08h-17.8c-3,0-4.6-1.12-5.2-3.08-1.4-4.9-6.6-7.28-14.8-7.28h-87.4c-11,0-16.6,2.94-16.6,10.5,0,6.16,2.8,11.48,17,12l90.4,3.36C2420.45,44.82,2433.25,55,2433.25,72.26Zm185,0c0,19.32-14.21,27.3-42.6,27.3h-95.2c-28,0-39.4-9-39.4-24.64,0-2,1.6-3.08,4.6-3.08h17.8c3.2,0,4.8,1.12,5.2,3.08,1.4,4.9,6.6,7.28,15,7.28h90.4c11,0,16.6-2.94,16.6-10.5,0-6.16-2.8-11.48-17-12l-90.4-3.36c-29.4-1.12-42.2-11.34-42.2-28.56,0-19.32,14.2-27.3,42.6-27.3h92.2c28,0,39.19,9,39.19,24.64,0,2-1.39,3.08-4.59,3.08h-17.8c-3,0-4.6-1.12-5.2-3.08-1.4-4.9-6.6-7.28-14.8-7.28h-87.4c-11,0-16.6,2.94-16.6,10.5,0,6.16,2.8,11.48,17,12l90.4,3.36C2605.45,44.82,2618.25,55,2618.25,72.26Z" transform="translate(-0.07 -0.44)"/></svg>