<svg id="Camada_1" data-name="Camada 1" xmlns="http://www.w3.org/2000/svg" viewBox="0 0 1081.48 347.76"><defs><style>.cls-1{fill:#fff;}</style></defs><path class="cls-1" d="M324.09,99.94c26.35-.58,27.83-1.06,29.65-9.6,1.82,8.54,3.29,9,29.65,9.6-26.36.59-27.83,1.07-29.65,9.61C351.92,101,350.44,100.53,324.09,99.94Zm56-9.43c2.62-12.29,4.74-13,42.68-13.83-37.94-.84-40.06-1.53-42.68-13.82-2.62,12.29-4.74,13-42.68,13.82C375.3,77.53,377.42,78.22,380,90.51Zm701.7,210.22c-129.39,2.89-136.63,5.24-145.57,47.15-4.87-22.87-9.25-34-33.24-39.79a265.21,265.21,0,0,1-39.22,9.31C752.14,336,477.39,311.51,384.17,271.51H338.29a9.13,9.13,0,0,1-7-3,7.93,7.93,0,0,1-.82-.82,8,8,0,0,1-.83-.82,9.18,9.18,0,0,1-.82-.83,7.93,7.93,0,0,1-.82-.82,8,8,0,0,1-.83-.82,10.7,10.7,0,0,1-.82-.83,8,8,0,0,1-.83-.82,9.18,9.18,0,0,1-.82-.83,9.07,9.07,0,0,1-.82-.82,8,8,0,0,1-.83-.82,9.18,9.18,0,0,1-.82-.83,9.07,9.07,0,0,1-.82-.82,8,8,0,0,1-.83-.82,9.18,9.18,0,0,1-.82-.83,7.93,7.93,0,0,1-.82-.82,8,8,0,0,1-.83-.82,9,9,0,0,1-2.53-3.67,10.17,10.17,0,0,1,1.52-9.64l7.62-11.34a21.44,21.44,0,0,1,7.06-6.52,22.61,22.61,0,0,1,2.37-1.17,10.65,10.65,0,0,1,1.65-8.74s17.59-26,19.89-29.33h-1.45l-10.59,15.4a13,13,0,0,1-1.29,1.78,22,22,0,0,1-6.56,5.28,17.64,17.64,0,0,1-8.25,2.14h-15.2a11.79,11.79,0,0,1-7.86-3.84,8,8,0,0,1-.83-.82,9.18,9.18,0,0,1-.82-.83,7.93,7.93,0,0,1-.82-.82,8,8,0,0,1-.83-.82,10.7,10.7,0,0,1-.82-.83,7.93,7.93,0,0,1-.82-.82,8.13,8.13,0,0,1-.83-.83,9.07,9.07,0,0,1-.82-.82,7.93,7.93,0,0,1-.82-.82,9,9,0,0,1-.76-.75H243.58a9.32,9.32,0,0,1-6.41-2.35,12.08,12.08,0,0,1-7.09,2.35h-18.4a9.2,9.2,0,0,1-6.76-2.69l-.3-.34c-.19-.16-.36-.32-.52-.48s-.2-.23-.31-.34l-.51-.48c-.11-.11-.21-.23-.31-.34l-.52-.49c-.11-.11-.2-.22-.3-.34s-.36-.32-.52-.48-.2-.23-.31-.34l-.51-.48c-.11-.11-.21-.23-.31-.34l-.52-.49c-.11-.11-.2-.22-.3-.34a6.15,6.15,0,0,1-.52-.48c-.11-.11-.21-.23-.31-.34s-.36-.33-.52-.48l-.3-.35c-.19-.16-.36-.32-.52-.48s-.2-.23-.3-.34a6.15,6.15,0,0,1-.52-.48c-.11-.11-.21-.23-.31-.34l-.1-.09-3.79,5.61a14,14,0,0,1-4.33,4,11.83,11.83,0,0,1-6.08,1.74h-18.5a9.12,9.12,0,0,1-7-3,8,8,0,0,1-.83-.82,9.07,9.07,0,0,1-.82-.82,9.29,9.29,0,0,1-.83-.83,9.07,9.07,0,0,1-.82-.82,9.18,9.18,0,0,1-.82-.83,8,8,0,0,1-.83-.82,9.07,9.07,0,0,1-.82-.82,9.18,9.18,0,0,1-.82-.83,8,8,0,0,1-.83-.82,9.07,9.07,0,0,1-.82-.82,96.26,96.26,0,0,0-1.65-1.65,9.07,9.07,0,0,1-.82-.82,96.26,96.26,0,0,0-1.65-1.65,9.07,9.07,0,0,1-.82-.82,8.83,8.83,0,0,1-2.53-3.67,10.19,10.19,0,0,1,1.52-9.65l5.59-8.28C88.47,115.23,72.87,76.54,104.67,53,84.07,49.5,51.9,48.43.26,47.27,129.65,44.38,136.89,42,145.82.12c3.44,16.11,6.63,26.37,16.6,33.07,2-.31,4-.6,6.12-.87C275.62,18.27,468.7,50,646.59,107.68a20.76,20.76,0,0,1,5.43-4.05,17.87,17.87,0,0,1,8.26-2.12h15.2a9,9,0,0,1,6.92,3,8.13,8.13,0,0,1,.83.83,10200434318976.19,10200434318976.19,0,0,0,1.64,1.64,8.13,8.13,0,0,1,.83.83,9.07,9.07,0,0,1,.82.82,96.26,96.26,0,0,0,1.65,1.65,9.07,9.07,0,0,1,.82.82,96.26,96.26,0,0,0,1.65,1.65,9.07,9.07,0,0,1,.82.82,9.29,9.29,0,0,1,.83.83,10200434319588.05,10200434319588.05,0,0,1,1.64,1.64,8.13,8.13,0,0,1,.83.83,9.07,9.07,0,0,1,.82.82,9,9,0,0,1,2.55,3.69,10.44,10.44,0,0,1-1.37,9.56l-25.48,37.69.05,0a9.18,9.18,0,0,1,.82.83,7.93,7.93,0,0,1,.82.82,9,9,0,0,1,2.5,3.65,9.84,9.84,0,0,1,.42,1.54h.7a9,9,0,0,1,6.92,3,8.13,8.13,0,0,1,.83.83,9.07,9.07,0,0,1,.82.82,8,8,0,0,1,.83.82,9.18,9.18,0,0,1,.82.83,9.07,9.07,0,0,1,.82.82,8,8,0,0,1,.83.82,9.18,9.18,0,0,1,.82.83,7.93,7.93,0,0,1,.82.82,8.13,8.13,0,0,1,.83.83,9.07,9.07,0,0,1,.82.82,7.93,7.93,0,0,1,.82.82,8.13,8.13,0,0,1,.83.83,9.07,9.07,0,0,1,.82.82,7.93,7.93,0,0,1,.82.82,8.13,8.13,0,0,1,.83.83,15.58,15.58,0,0,1,3.37,4.52,10.42,10.42,0,0,1-1.37,9.55l-.59.88h1.09a9.28,9.28,0,0,1,6.59,2.51l8-11.77a20.45,20.45,0,0,1,7-6.5,18.36,18.36,0,0,1,9.14-2.54h51a12.32,12.32,0,0,1,9.5,3.92c.29.27.57.54.83.83s.56.53.82.82.47.45.7.69l6.23-9.22c0-.07.1-.15.15-.22.3-.41.66-.86,1.07-1.34a20.77,20.77,0,0,1,6.61-5.36,17.87,17.87,0,0,1,8.26-2.12h15.2a9,9,0,0,1,6.92,3,8.13,8.13,0,0,1,.83.83,9.07,9.07,0,0,1,.82.82,7.93,7.93,0,0,1,.82.82,8.13,8.13,0,0,1,.83.83,9.07,9.07,0,0,1,.82.82,96.26,96.26,0,0,0,1.65,1.65l.07.06q.47-.62,1.08-1.35a20.57,20.57,0,0,1,6.6-5.35,17.87,17.87,0,0,1,8.26-2.12h15.2a9,9,0,0,1,6.92,3,8.13,8.13,0,0,1,.83.83,9.07,9.07,0,0,1,.82.82,7.93,7.93,0,0,1,.82.82,8.13,8.13,0,0,1,.83.83,9.07,9.07,0,0,1,.82.82,7.93,7.93,0,0,1,.82.82,8.13,8.13,0,0,1,.83.83,9.07,9.07,0,0,1,.82.82,9.29,9.29,0,0,1,.83.83,9.07,9.07,0,0,1,.82.82,9.07,9.07,0,0,1,.82.82,8.13,8.13,0,0,1,.83.83,9.07,9.07,0,0,1,.82.82,9.07,9.07,0,0,1,.82.82,8.13,8.13,0,0,1,.83.83,15.58,15.58,0,0,1,3.37,4.52,9.69,9.69,0,0,1,.59,3.22c46.71,30.71,63.68,59.59,49.6,81.93C959,296.86,988.91,298.65,1081.74,300.73ZM828.66,215l-20.55,30.4a4.45,4.45,0,0,0-.74,4.15,2.9,2.9,0,0,0,3,1.95h22l0-.1h9.5a6.1,6.1,0,0,0,3.06-.9,7,7,0,0,0,2.45-2.3l5.34-7.9a4.5,4.5,0,0,0,.87-4.25,3,3,0,0,0-3.12-1.95h-6.4l31.44-46.5a4.48,4.48,0,0,0,.74-4.15,2.9,2.9,0,0,0-3-2h-15.2a11.91,11.91,0,0,0-5.51,1.45,14.67,14.67,0,0,0-4.73,3.85c-.34.4-.64.77-.88,1.1Zm-43.9,0-20.55,30.4a4.45,4.45,0,0,0-.74,4.15,2.9,2.9,0,0,0,3,1.95h22l0-.1H798a6.1,6.1,0,0,0,3.06-.9,7,7,0,0,0,2.45-2.3l5.34-7.9a4.5,4.5,0,0,0,.87-4.25,3,3,0,0,0-3.12-1.95h-6.4l31.44-46.5a4.45,4.45,0,0,0,.74-4.15,2.9,2.9,0,0,0-3-2h-15.2a11.84,11.84,0,0,0-5.5,1.45,14.7,14.7,0,0,0-4.74,3.85c-.34.4-.63.77-.88,1.1Zm-65.64,22.3a2.33,2.33,0,0,1,1-1.2,2.73,2.73,0,0,1,1.47-.5h9a6.1,6.1,0,0,0,3.06-.9,7,7,0,0,0,2.45-2.3l1.19-1.7a2.24,2.24,0,0,0,.43-2.1,1.47,1.47,0,0,0-1.55-1h-30.3a12,12,0,0,0-6.08,1.8,15.87,15.87,0,0,0-5.08,4.7l-7.62,11.3a4.45,4.45,0,0,0-.74,4.15,3,3,0,0,0,3.12,1.95h57.4a12.26,12.26,0,0,0,6.13-1.8,14.74,14.74,0,0,0,5-4.6l26.54-39.3q3.11-4.6,1.64-8.45c-1-2.57-3-3.85-6.17-3.85H729a12.28,12.28,0,0,0-6.16,1.75,14.54,14.54,0,0,0-5,4.65l-11.7,17.3a4.51,4.51,0,0,0-.88,4.25,3,3,0,0,0,3.12,1.95h31.5a3,3,0,0,1,3.15,1.9,4.42,4.42,0,0,1-.86,4.2l-4.56,6.8a8.11,8.11,0,0,1-2.5,2.3,6,6,0,0,1-3.11.9h-11.7a1.37,1.37,0,0,1-1.28-.65A1.61,1.61,0,0,1,719.12,237.31Zm-57.73-55.8a11.84,11.84,0,0,0-5.5,1.45,14.7,14.7,0,0,0-4.74,3.85c-.34.4-.63.77-.88,1.1l-38.86,57.5a4.48,4.48,0,0,0-.74,4.15,3,3,0,0,0,3.12,1.95h18.5a6.16,6.16,0,0,0,3.07-.9,6.93,6.93,0,0,0,2.44-2.3l16.78-24.7h29.5a1.52,1.52,0,0,1,1.22.5,1.23,1.23,0,0,1,.15,1.3,2.69,2.69,0,0,1-1,1.45,2.59,2.59,0,0,1-1.68.65h-13.6a6.1,6.1,0,0,0-3.06.9,8,8,0,0,0-2.55,2.3l-9.9,14.7a4.45,4.45,0,0,0-.74,4.15,3,3,0,0,0,3.12,1.95h18.5a6.16,6.16,0,0,0,3.07-.9,6.93,6.93,0,0,0,2.44-2.3l20.55-30.4a4.33,4.33,0,0,0,.85-4.15,3,3,0,0,0-3.13-1.95h-35.8l16.3-24.2a4.45,4.45,0,0,0,.74-4.15,2.9,2.9,0,0,0-3-2Zm-65.06,52.6,15.35-22.6h15.5a6,6,0,0,0,3.11-.9,8.11,8.11,0,0,0,2.5-2.3l1.7-2.6a4.35,4.35,0,0,0,.84-4.15,3,3,0,0,0-3.12-1.95h-12.5l8.06-12a4.45,4.45,0,0,0,.74-4.15,2.9,2.9,0,0,0-3-2h-15.2a11.84,11.84,0,0,0-5.5,1.45,14.7,14.7,0,0,0-4.74,3.85c-.34.4-.63.77-.88,1.1l-7.86,11.7h-7.4a6.1,6.1,0,0,0-3.06.9,6.88,6.88,0,0,0-2.45,2.3l-1.77,2.5a4.6,4.6,0,0,0-.77,4.25,3,3,0,0,0,3.12,1.95h4.3l-23,33.9a4.45,4.45,0,0,0-.74,4.15,2.9,2.9,0,0,0,3,1.95h22l0-.1h9.5a6.1,6.1,0,0,0,3.06-.9,7,7,0,0,0,2.45-2.3l5.34-7.9a4.51,4.51,0,0,0,.88-4.25,3,3,0,0,0-3.13-1.95Zm-141.59-82.7a2.69,2.69,0,0,1-.95,1.45,2.59,2.59,0,0,1-1.68.65h-13.6a6.1,6.1,0,0,0-3.06.9,8,8,0,0,0-2.55,2.3l-9.9,14.7a4.45,4.45,0,0,0-.74,4.15,3,3,0,0,0,3.12,1.95h18.5a6.1,6.1,0,0,0,3.06-.9,6.88,6.88,0,0,0,2.45-2.3l20.55-30.4a4.33,4.33,0,0,0,.85-4.15,3,3,0,0,0-3.13-1.95h-35.8l16.3-24.2a4.45,4.45,0,0,0,.74-4.15,2.9,2.9,0,0,0-3-1.95h-15.2a11.84,11.84,0,0,0-5.5,1.45,14.7,14.7,0,0,0-4.74,3.85c-.34.4-.63.77-.88,1.1l-38.86,57.5a4.48,4.48,0,0,0-.74,4.15,3,3,0,0,0,3.12,1.95h18.5a6.16,6.16,0,0,0,3.07-.9,6.93,6.93,0,0,0,2.44-2.3l16.78-24.7h29.5a1.52,1.52,0,0,1,1.22.5A1.23,1.23,0,0,1,454.74,151.41Zm.92,24.15a3,3,0,0,0,3.12,1.95h57.4a12.26,12.26,0,0,0,6.13-1.8,14.74,14.74,0,0,0,5-4.6l26.54-39.3q3.1-4.6,1.64-8.45c-1-2.57-3-3.85-6.17-3.85h-51a12.28,12.28,0,0,0-6.16,1.75,14.54,14.54,0,0,0-5,4.65l-11.7,17.3a4.51,4.51,0,0,0-.88,4.25,3,3,0,0,0,3.12,1.95h31.5a3,3,0,0,1,3.15,1.9,4.42,4.42,0,0,1-.86,4.2l-4.56,6.8a8.11,8.11,0,0,1-2.5,2.3,6,6,0,0,1-3.11.9h-11.7a1.37,1.37,0,0,1-1.28-.65,1.61,1.61,0,0,1,0-1.55,2.33,2.33,0,0,1,1-1.2,2.73,2.73,0,0,1,1.47-.5h9a6.1,6.1,0,0,0,3.06-.9,7,7,0,0,0,2.45-2.3l1.19-1.7a2.24,2.24,0,0,0,.43-2.1,1.47,1.47,0,0,0-1.55-1h-30.3a12,12,0,0,0-6.08,1.8,15.87,15.87,0,0,0-5.08,4.7l-7.62,11.3A4.45,4.45,0,0,0,455.66,175.56Zm135.85-26.65-1,1.5a7.41,7.41,0,0,1-2.57,2.35,6.23,6.23,0,0,1-3,.85h-7a6.16,6.16,0,0,0-3.07.9,7.79,7.79,0,0,0-2.58,2.4l-1.05,1.6a2.27,2.27,0,0,0-.45,2.15,1.51,1.51,0,0,0,1.57,1H604a12.1,12.1,0,0,0,6.17-1.8,14.89,14.89,0,0,0,5-4.6l15.82-23.4q3.1-4.6,1.64-8.45c-1-2.57-3-3.85-6.17-3.85h-51a12.22,12.22,0,0,0-6.15,1.75,14.49,14.49,0,0,0-5,4.65l-30.79,45.5a4.45,4.45,0,0,0-.74,4.15,3,3,0,0,0,3.12,1.95h57.4a12.26,12.26,0,0,0,6.13-1.8,14.74,14.74,0,0,0,5-4.6,4.14,4.14,0,0,0,.76-3.9,2.75,2.75,0,0,0-2.88-1.8h-35.7a2,2,0,0,1-2.06-1.25,2.92,2.92,0,0,1,.55-2.75l8.37-12.3a7.93,7.93,0,0,1,2.53-2.4,5.85,5.85,0,0,1,3-.9h11.3a1.48,1.48,0,0,1,1.56,1A2.39,2.39,0,0,1,591.51,148.91Zm-84.37,50.9-30.83,45.6a4.48,4.48,0,0,0-.74,4.15,2.9,2.9,0,0,0,3,1.95h57.5a11.91,11.91,0,0,0,5.51-1.45,14.67,14.67,0,0,0,4.73-3.85c.34-.4.63-.77.89-1.1L578,199.51a4.51,4.51,0,0,0,.88-4.25,3,3,0,0,0-3.12-1.95H560.59a12,12,0,0,0-6.07,1.8,15.87,15.87,0,0,0-5.08,4.7l-16.06,23.8H505a1.58,1.58,0,0,1-1.18-.5,1.19,1.19,0,0,1-.2-1.3,2.6,2.6,0,0,1,1-1.45,2.65,2.65,0,0,1,1.62-.65h12.3a6,6,0,0,0,3-.85,7.59,7.59,0,0,0,2.51-2.35l11.6-17a4.51,4.51,0,0,0,.88-4.25,3,3,0,0,0-3.12-1.95H518.3a12,12,0,0,0-6.08,1.8A15.87,15.87,0,0,0,507.14,199.81Zm146.12-90-3.64,3.6-.38.38a.28.28,0,0,0-.08.11L630.85,141l-20.55,30.4a4.45,4.45,0,0,0-.74,4.15,2.9,2.9,0,0,0,3,1.95h22l0-.1h9.5a6.16,6.16,0,0,0,3.07-.9,7,7,0,0,0,2.45-2.3l5.34-7.9a4.53,4.53,0,0,0,.87-4.25,3,3,0,0,0-3.12-1.95h-6.4l31.44-46.5a4.48,4.48,0,0,0,.74-4.15,2.9,2.9,0,0,0-3-1.95h-15.2a11.91,11.91,0,0,0-5.51,1.45A15.93,15.93,0,0,0,653.26,109.82ZM145.82,67.57c3.85-18,7-19,62.66-20.3C152.79,46,149.67,45,145.82,27,142,45,138.86,46,83.17,47.27,138.86,48.52,142,49.53,145.82,67.57Zm9.93,80.58,4.92-7.29a20.19,20.19,0,0,1,7-6.53,22.65,22.65,0,0,1,2.38-1.16,10.65,10.65,0,0,1,1.65-8.74l9.46-13.9a20.91,20.91,0,0,1,6.87-6.4,18.08,18.08,0,0,1,9.21-2.62h51a12.38,12.38,0,0,1,9.45,3.87c.28.26.56.54.82.83a10.57,10.57,0,0,1,.82.82,10.7,10.7,0,0,1,.83.82c.28.26.56.54.82.83a10.57,10.57,0,0,1,.82.82,96.26,96.26,0,0,1,1.65,1.65,10.57,10.57,0,0,1,.82.82,96.26,96.26,0,0,1,1.65,1.65,1.29,1.29,0,0,1,.17.16,16.68,16.68,0,0,1,3-.27h51a12.32,12.32,0,0,1,9.51,3.93,10.57,10.57,0,0,1,.82.82,9.29,9.29,0,0,1,.83.83c.25.23.49.47.73.72a21.56,21.56,0,0,1,5.08-4.06,18.17,18.17,0,0,1,9-2.54h57.5a9.13,9.13,0,0,1,7.1,3.06l3.87-5.72.16-.23c.3-.41.66-.85,1.07-1.34a20.84,20.84,0,0,1,6.6-5.35,17.87,17.87,0,0,1,8.26-2.12h15.2a9,9,0,0,1,6.92,3,8.13,8.13,0,0,1,.83.83,9.07,9.07,0,0,1,.82.82,96.26,96.26,0,0,1,1.65,1.65,9.07,9.07,0,0,1,.82.82,7.23,7.23,0,0,1,.83.83,7.93,7.93,0,0,1,.82.82,9.07,9.07,0,0,1,.82.82,8.13,8.13,0,0,1,.83.83,9.07,9.07,0,0,1,.82.82,7.93,7.93,0,0,1,.82.82,8.13,8.13,0,0,1,.83.83,9.07,9.07,0,0,1,.82.82,7.93,7.93,0,0,1,.82.82,8.13,8.13,0,0,1,.83.83,9.07,9.07,0,0,1,.82.82,9,9,0,0,1,2.55,3.69,10.44,10.44,0,0,1-1.37,9.56l-.59.88h1.09a9.28,9.28,0,0,1,6.59,2.51l8-11.77a20.46,20.46,0,0,1,6.95-6.5,18.25,18.25,0,0,1,9.14-2.54h51a12.35,12.35,0,0,1,9.47,3.89,96.26,96.26,0,0,0,1.65,1.65c.28.26.56.53.82.82l.11.1a20.92,20.92,0,0,1,4.91-3.92,18.25,18.25,0,0,1,9.14-2.54h51a12.32,12.32,0,0,1,9.55,4c.28.26.56.53.82.82a9.07,9.07,0,0,1,.82.82c.16.15.32.29.47.45l5.12-7.57C494.35,69,332.48,47.08,230.71,60.43,144.85,71.69,121.53,105.47,155.75,148.15Zm70.12,1.46a12.25,12.25,0,0,0,6.15-1.75,14.49,14.49,0,0,0,5-4.65l15.82-23.4q3.09-4.61,1.63-8.45c-1-2.57-3-3.85-6.16-3.85h-51a12.13,12.13,0,0,0-6.18,1.8,14.86,14.86,0,0,0-4.94,4.6l-9.39,13.8A4.64,4.64,0,0,0,176,132a3,3,0,0,0,3.13,1.95h51.5a1.57,1.57,0,0,1,1.17.5,1.17,1.17,0,0,1,.2,1.3,2.69,2.69,0,0,1-1,1.45,2.59,2.59,0,0,1-1.68.65h-52.6a12.36,12.36,0,0,0-6.11,1.75,14.35,14.35,0,0,0-5,4.65l-9.36,13.88-9,13.32a4.35,4.35,0,0,0-.84,4.15,3,3,0,0,0,3.12,1.95h18.5a5.82,5.82,0,0,0,3-.9,8.07,8.07,0,0,0,2.08-1.76h0c.21-.27,3.46-5.05,3.46-5.05l13.63-20.18h4.5l-.48,24.7a3.2,3.2,0,0,0,.9,2.3,3.35,3.35,0,0,0,2.49.9h18.4a6.46,6.46,0,0,0,4.48-1.95,5.58,5.58,0,0,0,2-4.15l.47-21.8Zm67.24,26.1a14.65,14.65,0,0,0,5-4.6l26.55-39.3q3.09-4.6,1.63-8.45c-1-2.57-3-3.85-6.17-3.85h-51a12.22,12.22,0,0,0-6.15,1.75,14.49,14.49,0,0,0-5,4.65l-11.7,17.3a4.51,4.51,0,0,0-.88,4.25,3,3,0,0,0,3.13,1.95H280a3,3,0,0,1,3.14,1.9,4.42,4.42,0,0,1-.86,4.2l-4.56,6.8a8.11,8.11,0,0,1-2.5,2.3,6,6,0,0,1-3.11.9h-11.7a1.37,1.37,0,0,1-1.28-.65,1.64,1.64,0,0,1,0-1.55,2.33,2.33,0,0,1,1-1.2,2.73,2.73,0,0,1,1.47-.5h9a6.1,6.1,0,0,0,3.06-.9,7,7,0,0,0,2.45-2.3l1.19-1.7a2.22,2.22,0,0,0,.43-2.1,1.46,1.46,0,0,0-1.55-1H246a12,12,0,0,0-6.08,1.8,15.87,15.87,0,0,0-5.08,4.7l-7.62,11.3a4.48,4.48,0,0,0-.74,4.15,3,3,0,0,0,3.12,1.95H287A12.26,12.26,0,0,0,293.11,175.71Zm79.45-10.8a12.33,12.33,0,0,0,6.1-1.75,14.38,14.38,0,0,0,5-4.65l22.22-33.2a4.35,4.35,0,0,0,.84-4.15,3,3,0,0,0-3.12-2h-57.5a12.1,12.1,0,0,0-6.06,1.75,15.33,15.33,0,0,0-5.06,4.65L323.46,143a4.51,4.51,0,0,0-.76,4.2,2.93,2.93,0,0,0,3,1.9h49.7a1.55,1.55,0,0,1,1.23.5,1.27,1.27,0,0,1,.15,1.3,2.68,2.68,0,0,1-1,1.5,2.58,2.58,0,0,1-1.65.6h-50.7a12.13,12.13,0,0,0-6.18,1.8,14.86,14.86,0,0,0-5,4.7L296,183.41a4.35,4.35,0,0,0-.84,4.15,3,3,0,0,0,3.13,1.95h15.2a11.56,11.56,0,0,0,5.45-1.45,16,16,0,0,0,4.79-3.85,6.7,6.7,0,0,0,.78-1.1l12.52-18.2Zm20.36,80.2,14.19-21q3.09-4.61,1.63-8.45c-1-2.57-3.06-3.85-6.26-3.85H359.07a1.52,1.52,0,0,1-1.22-.5,1.4,1.4,0,0,1-.25-1.3,2.58,2.58,0,0,1,1-1.45,2.78,2.78,0,0,1,1.73-.65h54.3a6.1,6.1,0,0,0,3.06-.9,8,8,0,0,0,2.55-2.3l7.28-10.9q3.11-4.6,1.64-8.45c-1-2.57-3-3.85-6.17-3.85H372a12.1,12.1,0,0,0-6.17,1.8,14.89,14.89,0,0,0-4.95,4.6l-20.07,29.6a4.64,4.64,0,0,0-.78,4.25,3,3,0,0,0,3.12,2h49.6a1.53,1.53,0,0,1,1.23.5,1.31,1.31,0,0,1,.28,1.2,2.73,2.73,0,0,1-1,1.55,2.68,2.68,0,0,1-1.63.65h-50.8a12.1,12.1,0,0,0-6.06,1.75,15.53,15.53,0,0,0-5.06,4.65L322,245.41a4.35,4.35,0,0,0-.84,4.15,3,3,0,0,0,3.13,1.95h57.5a12,12,0,0,0,6.07-1.8A15.94,15.94,0,0,0,392.92,245.11Zm8.57,6.4H459a12.24,12.24,0,0,0,6.13-1.8,14.78,14.78,0,0,0,5-4.6l26.71-39.5q3.06-4.5,1.61-8.4t-6.24-3.9h-51a12,12,0,0,0-6.08,1.8,15.87,15.87,0,0,0-5.08,4.7l-30.83,45.6a4.48,4.48,0,0,0-.74,4.15A2.9,2.9,0,0,0,401.49,251.51Zm489.16-40.79-21.56,31.89,0,.06a9.18,9.18,0,0,1,.82.83,7.93,7.93,0,0,1,.82.82,9,9,0,0,1,2.5,3.65,10.35,10.35,0,0,1-1.58,9.77l-5.25,7.77a12.89,12.89,0,0,1-4.47,4.2,12,12,0,0,1-6.05,1.7h-8.45a5.6,5.6,0,0,1-1.09.1h-22a9.31,9.31,0,0,1-5.95-2l-.36.21a12,12,0,0,1-6.05,1.7h-8.45a5.6,5.6,0,0,1-1.09.1h-22a9,9,0,0,1-7-3,9.17,9.17,0,0,1-.83-.82c-.12-.11-.25-.2-.36-.32a23.78,23.78,0,0,1-2.34,1.56,18.21,18.21,0,0,1-9.12,2.6h-57.4a9.16,9.16,0,0,1-7-3,14.81,14.81,0,0,1-1.83,1.26,12.07,12.07,0,0,1-6.06,1.7h-18.5a9.12,9.12,0,0,1-7-3,8,8,0,0,1-.83-.82,9.07,9.07,0,0,1-.82-.82,96.26,96.26,0,0,0-1.65-1.65,9.07,9.07,0,0,1-.82-.82,9.32,9.32,0,0,1-.77-.77l-1.36,2a12.77,12.77,0,0,1-4.46,4.2,12.07,12.07,0,0,1-6.06,1.7h-18.5a9.13,9.13,0,0,1-7-3,8,8,0,0,1-.83-.82,9.07,9.07,0,0,1-.82-.82,8,8,0,0,1-.82-.83,13.24,13.24,0,0,1-4.1,3.69,12.07,12.07,0,0,1-6.06,1.7h-8.45a5.6,5.6,0,0,1-1.09.1h-22a9,9,0,0,1-6.92-3,8.13,8.13,0,0,1-.83-.83,10200434318965.41,10200434318965.41,0,0,1-1.64-1.64,8.13,8.13,0,0,1-.83-.83,9.07,9.07,0,0,1-.82-.82l-.5-.47-.1.11a20.57,20.57,0,0,1-6.6,5.35,17.81,17.81,0,0,1-8.26,2.12h-57.5a9,9,0,0,1-6.95-3,9.17,9.17,0,0,1-.83-.82c-.12-.11-.25-.2-.36-.32a22.65,22.65,0,0,1-2.34,1.56,18.21,18.21,0,0,1-9.12,2.6h-57.5a9,9,0,0,1-6.95-3,7.93,7.93,0,0,1-.82-.82c-.15-.13-.3-.25-.44-.39a22,22,0,0,1-2.38,1.61,19.52,19.52,0,0,1-4.68,2c142.89,30.69,301.58,41.82,405.13,24.56C894.58,280.58,921.91,248.12,890.65,210.72Zm108.18,90c-55.7-1.25-58.81-2.26-62.66-20.3-3.84,18-7,19.05-62.66,20.3,55.7,1.24,58.82,2.25,62.66,20.3C940,303,943.13,302,998.83,300.73ZM762.91,279.21c-2,9.35-3.61,9.87-32.48,10.52,28.87.64,30.49,1.17,32.48,10.52,2-9.35,3.61-9.88,32.48-10.52C766.52,289.08,764.9,288.56,762.91,279.21Zm-41.69-5.92c-1.45,6.77-2.61,7.14-23.49,7.61,20.88.47,22,.85,23.49,7.61,1.44-6.76,2.61-7.14,23.48-7.61C723.83,280.43,722.66,280.06,721.22,273.29ZM452.93,214.22h-14a8.85,8.85,0,0,0-4.38,1.22,9.82,9.82,0,0,0-3.48,3.23l-10.32,15.21a3,3,0,0,0-.56,3,2.19,2.19,0,0,0,2.27,1.36h14.17a8.65,8.65,0,0,0,4.32-1.25,10.94,10.94,0,0,0,3.56-3.27l10.24-15.21a3,3,0,0,0,.47-2.89A2.2,2.2,0,0,0,452.93,214.22Z" transform="translate(-0.26 -0.12)"/><path d="M324.09,99.94c26.35-.58,27.83-1.06,29.65-9.6,1.82,8.54,3.29,9,29.65,9.6-26.36.59-27.83,1.07-29.65,9.61C351.92,101,350.44,100.53,324.09,99.94Zm56-9.43c2.62-12.29,4.74-13,42.68-13.83-37.94-.84-40.06-1.53-42.68-13.82-2.62,12.29-4.74,13-42.68,13.82C375.3,77.53,377.42,78.22,380,90.51Zm701.7,210.22c-129.39,2.89-136.63,5.24-145.57,47.15-4.87-22.87-9.25-34-33.24-39.79a265.21,265.21,0,0,1-39.22,9.31C752.14,336,477.39,311.51,384.17,271.51H338.29a9.13,9.13,0,0,1-7-3,7.93,7.93,0,0,1-.82-.82,8,8,0,0,1-.83-.82,9.18,9.18,0,0,1-.82-.83,7.93,7.93,0,0,1-.82-.82,8,8,0,0,1-.83-.82,10.7,10.7,0,0,1-.82-.83,8,8,0,0,1-.83-.82,9.18,9.18,0,0,1-.82-.83,9.07,9.07,0,0,1-.82-.82,8,8,0,0,1-.83-.82,9.18,9.18,0,0,1-.82-.83,9.07,9.07,0,0,1-.82-.82,8,8,0,0,1-.83-.82,9.18,9.18,0,0,1-.82-.83,7.93,7.93,0,0,1-.82-.82,8,8,0,0,1-.83-.82,9,9,0,0,1-2.53-3.67,10.17,10.17,0,0,1,1.52-9.64l7.62-11.34a21.44,21.44,0,0,1,7.06-6.52,22.61,22.61,0,0,1,2.37-1.17,10.65,10.65,0,0,1,1.65-8.74s17.59-26,19.89-29.33h-1.45l-10.59,15.4a13,13,0,0,1-1.29,1.78,22,22,0,0,1-6.56,5.28,17.64,17.64,0,0,1-8.25,2.14h-15.2a11.79,11.79,0,0,1-7.86-3.84,8,8,0,0,1-.83-.82,9.18,9.18,0,0,1-.82-.83,7.93,7.93,0,0,1-.82-.82,8,8,0,0,1-.83-.82,10.7,10.7,0,0,1-.82-.83,7.93,7.93,0,0,1-.82-.82,8.13,8.13,0,0,1-.83-.83,9.07,9.07,0,0,1-.82-.82,7.93,7.93,0,0,1-.82-.82,9,9,0,0,1-.76-.75H243.58a9.32,9.32,0,0,1-6.41-2.35,12.08,12.08,0,0,1-7.09,2.35h-18.4a9.2,9.2,0,0,1-6.76-2.69l-.3-.34c-.19-.16-.36-.32-.52-.48s-.2-.23-.31-.34l-.51-.48c-.11-.11-.21-.23-.31-.34l-.52-.49c-.11-.11-.2-.22-.3-.34s-.36-.32-.52-.48-.2-.23-.31-.34l-.51-.48c-.11-.11-.21-.23-.31-.34l-.52-.49c-.11-.11-.2-.22-.3-.34a6.15,6.15,0,0,1-.52-.48c-.11-.11-.21-.23-.31-.34s-.36-.33-.52-.48l-.3-.35c-.19-.16-.36-.32-.52-.48s-.2-.23-.3-.34a6.15,6.15,0,0,1-.52-.48c-.11-.11-.21-.23-.31-.34l-.1-.09-3.79,5.61a14,14,0,0,1-4.33,4,11.83,11.83,0,0,1-6.08,1.74h-18.5a9.12,9.12,0,0,1-7-3,8,8,0,0,1-.83-.82,9.07,9.07,0,0,1-.82-.82,9.29,9.29,0,0,1-.83-.83,9.07,9.07,0,0,1-.82-.82,9.18,9.18,0,0,1-.82-.83,8,8,0,0,1-.83-.82,9.07,9.07,0,0,1-.82-.82,9.18,9.18,0,0,1-.82-.83,8,8,0,0,1-.83-.82,9.07,9.07,0,0,1-.82-.82,96.26,96.26,0,0,0-1.65-1.65,9.07,9.07,0,0,1-.82-.82,96.26,96.26,0,0,0-1.65-1.65,9.07,9.07,0,0,1-.82-.82,8.83,8.83,0,0,1-2.53-3.67,10.19,10.19,0,0,1,1.52-9.65l5.59-8.28C88.47,115.23,72.87,76.54,104.67,53,84.07,49.5,51.9,48.43.26,47.27,129.65,44.38,136.89,42,145.82.12c3.44,16.11,6.63,26.37,16.6,33.07,2-.31,4-.6,6.12-.87C275.62,18.27,468.7,50,646.59,107.68a20.76,20.76,0,0,1,5.43-4.05,17.87,17.87,0,0,1,8.26-2.12h15.2a9,9,0,0,1,6.92,3,8.13,8.13,0,0,1,.83.83,10200434318976.19,10200434318976.19,0,0,0,1.64,1.64,8.13,8.13,0,0,1,.83.83,9.07,9.07,0,0,1,.82.82,96.26,96.26,0,0,0,1.65,1.65,9.07,9.07,0,0,1,.82.82,96.26,96.26,0,0,0,1.65,1.65,9.07,9.07,0,0,1,.82.82,9.29,9.29,0,0,1,.83.83,10200434319588.05,10200434319588.05,0,0,1,1.64,1.64,8.13,8.13,0,0,1,.83.83,9.07,9.07,0,0,1,.82.82,9,9,0,0,1,2.55,3.69,10.44,10.44,0,0,1-1.37,9.56l-25.48,37.69.05,0a9.18,9.18,0,0,1,.82.83,7.93,7.93,0,0,1,.82.82,9,9,0,0,1,2.5,3.65,9.84,9.84,0,0,1,.42,1.54h.7a9,9,0,0,1,6.92,3,8.13,8.13,0,0,1,.83.83,9.07,9.07,0,0,1,.82.82,8,8,0,0,1,.83.82,9.18,9.18,0,0,1,.82.83,9.07,9.07,0,0,1,.82.82,8,8,0,0,1,.83.82,9.18,9.18,0,0,1,.82.83,7.93,7.93,0,0,1,.82.82,8.13,8.13,0,0,1,.83.83,9.07,9.07,0,0,1,.82.82,7.93,7.93,0,0,1,.82.82,8.13,8.13,0,0,1,.83.83,9.07,9.07,0,0,1,.82.82,7.93,7.93,0,0,1,.82.82,8.13,8.13,0,0,1,.83.83,15.58,15.58,0,0,1,3.37,4.52,10.42,10.42,0,0,1-1.37,9.55l-.59.88h1.09a9.28,9.28,0,0,1,6.59,2.51l8-11.77a20.45,20.45,0,0,1,7-6.5,18.36,18.36,0,0,1,9.14-2.54h51a12.32,12.32,0,0,1,9.5,3.92c.29.27.57.54.83.83s.56.53.82.82.47.45.7.69l6.23-9.22c0-.07.1-.15.15-.22.3-.41.66-.86,1.07-1.34a20.77,20.77,0,0,1,6.61-5.36,17.87,17.87,0,0,1,8.26-2.12h15.2a9,9,0,0,1,6.92,3,8.13,8.13,0,0,1,.83.83,9.07,9.07,0,0,1,.82.82,7.93,7.93,0,0,1,.82.82,8.13,8.13,0,0,1,.83.83,9.07,9.07,0,0,1,.82.82,96.26,96.26,0,0,0,1.65,1.65l.07.06q.47-.62,1.08-1.35a20.57,20.57,0,0,1,6.6-5.35,17.87,17.87,0,0,1,8.26-2.12h15.2a9,9,0,0,1,6.92,3,8.13,8.13,0,0,1,.83.83,9.07,9.07,0,0,1,.82.82,7.93,7.93,0,0,1,.82.82,8.13,8.13,0,0,1,.83.83,9.07,9.07,0,0,1,.82.82,7.93,7.93,0,0,1,.82.82,8.13,8.13,0,0,1,.83.83,9.07,9.07,0,0,1,.82.82,9.29,9.29,0,0,1,.83.83,9.07,9.07,0,0,1,.82.82,9.07,9.07,0,0,1,.82.82,8.13,8.13,0,0,1,.83.83,9.07,9.07,0,0,1,.82.82,9.07,9.07,0,0,1,.82.82,8.13,8.13,0,0,1,.83.83,15.58,15.58,0,0,1,3.37,4.52,9.69,9.69,0,0,1,.59,3.22c46.71,30.71,63.68,59.59,49.6,81.93C959,296.86,988.91,298.65,1081.74,300.73ZM828.66,215l-20.55,30.4a4.45,4.45,0,0,0-.74,4.15,2.9,2.9,0,0,0,3,1.95h22l0-.1h9.5a6.1,6.1,0,0,0,3.06-.9,7,7,0,0,0,2.45-2.3l5.34-7.9a4.5,4.5,0,0,0,.87-4.25,3,3,0,0,0-3.12-1.95h-6.4l31.44-46.5a4.48,4.48,0,0,0,.74-4.15,2.9,2.9,0,0,0-3-2h-15.2a11.91,11.91,0,0,0-5.51,1.45,14.67,14.67,0,0,0-4.73,3.85c-.34.4-.64.77-.88,1.1Zm-43.9,0-20.55,30.4a4.45,4.45,0,0,0-.74,4.15,2.9,2.9,0,0,0,3,1.95h22l0-.1H798a6.1,6.1,0,0,0,3.06-.9,7,7,0,0,0,2.45-2.3l5.34-7.9a4.5,4.5,0,0,0,.87-4.25,3,3,0,0,0-3.12-1.95h-6.4l31.44-46.5a4.45,4.45,0,0,0,.74-4.15,2.9,2.9,0,0,0-3-2h-15.2a11.84,11.84,0,0,0-5.5,1.45,14.7,14.7,0,0,0-4.74,3.85c-.34.4-.63.77-.88,1.1Zm-65.64,22.3a2.33,2.33,0,0,1,1-1.2,2.73,2.73,0,0,1,1.47-.5h9a6.1,6.1,0,0,0,3.06-.9,7,7,0,0,0,2.45-2.3l1.19-1.7a2.24,2.24,0,0,0,.43-2.1,1.47,1.47,0,0,0-1.55-1h-30.3a12,12,0,0,0-6.08,1.8,15.87,15.87,0,0,0-5.08,4.7l-7.62,11.3a4.45,4.45,0,0,0-.74,4.15,3,3,0,0,0,3.12,1.95h57.4a12.26,12.26,0,0,0,6.13-1.8,14.74,14.74,0,0,0,5-4.6l26.54-39.3q3.11-4.6,1.64-8.45c-1-2.57-3-3.85-6.17-3.85H729a12.28,12.28,0,0,0-6.16,1.75,14.54,14.54,0,0,0-5,4.65l-11.7,17.3a4.51,4.51,0,0,0-.88,4.25,3,3,0,0,0,3.12,1.95h31.5a3,3,0,0,1,3.15,1.9,4.42,4.42,0,0,1-.86,4.2l-4.56,6.8a8.11,8.11,0,0,1-2.5,2.3,6,6,0,0,1-3.11.9h-11.7a1.37,1.37,0,0,1-1.28-.65A1.61,1.61,0,0,1,719.12,237.31Zm-57.73-55.8a11.84,11.84,0,0,0-5.5,1.45,14.7,14.7,0,0,0-4.74,3.85c-.34.4-.63.77-.88,1.1l-38.86,57.5a4.48,4.48,0,0,0-.74,4.15,3,3,0,0,0,3.12,1.95h18.5a6.16,6.16,0,0,0,3.07-.9,6.93,6.93,0,0,0,2.44-2.3l16.78-24.7h29.5a1.52,1.52,0,0,1,1.22.5,1.23,1.23,0,0,1,.15,1.3,2.69,2.69,0,0,1-1,1.45,2.59,2.59,0,0,1-1.68.65h-13.6a6.1,6.1,0,0,0-3.06.9,8,8,0,0,0-2.55,2.3l-9.9,14.7a4.45,4.45,0,0,0-.74,4.15,3,3,0,0,0,3.12,1.95h18.5a6.16,6.16,0,0,0,3.07-.9,6.93,6.93,0,0,0,2.44-2.3l20.55-30.4a4.33,4.33,0,0,0,.85-4.15,3,3,0,0,0-3.13-1.95h-35.8l16.3-24.2a4.45,4.45,0,0,0,.74-4.15,2.9,2.9,0,0,0-3-2Zm-65.06,52.6,15.35-22.6h15.5a6,6,0,0,0,3.11-.9,8.11,8.11,0,0,0,2.5-2.3l1.7-2.6a4.35,4.35,0,0,0,.84-4.15,3,3,0,0,0-3.12-1.95h-12.5l8.06-12a4.45,4.45,0,0,0,.74-4.15,2.9,2.9,0,0,0-3-2h-15.2a11.84,11.84,0,0,0-5.5,1.45,14.7,14.7,0,0,0-4.74,3.85c-.34.4-.63.77-.88,1.1l-7.86,11.7h-7.4a6.1,6.1,0,0,0-3.06.9,6.88,6.88,0,0,0-2.45,2.3l-1.77,2.5a4.6,4.6,0,0,0-.77,4.25,3,3,0,0,0,3.12,1.95h4.3l-23,33.9a4.45,4.45,0,0,0-.74,4.15,2.9,2.9,0,0,0,3,1.95h22l0-.1h9.5a6.1,6.1,0,0,0,3.06-.9,7,7,0,0,0,2.45-2.3l5.34-7.9a4.51,4.51,0,0,0,.88-4.25,3,3,0,0,0-3.13-1.95Zm-141.59-82.7a2.69,2.69,0,0,1-.95,1.45,2.59,2.59,0,0,1-1.68.65h-13.6a6.1,6.1,0,0,0-3.06.9,8,8,0,0,0-2.55,2.3l-9.9,14.7a4.45,4.45,0,0,0-.74,4.15,3,3,0,0,0,3.12,1.95h18.5a6.1,6.1,0,0,0,3.06-.9,6.88,6.88,0,0,0,2.45-2.3l20.55-30.4a4.33,4.33,0,0,0,.85-4.15,3,3,0,0,0-3.13-1.95h-35.8l16.3-24.2a4.45,4.45,0,0,0,.74-4.15,2.9,2.9,0,0,0-3-1.95h-15.2a11.84,11.84,0,0,0-5.5,1.45,14.7,14.7,0,0,0-4.74,3.85c-.34.4-.63.77-.88,1.1l-38.86,57.5a4.48,4.48,0,0,0-.74,4.15,3,3,0,0,0,3.12,1.95h18.5a6.16,6.16,0,0,0,3.07-.9,6.93,6.93,0,0,0,2.44-2.3l16.78-24.7h29.5a1.52,1.52,0,0,1,1.22.5A1.23,1.23,0,0,1,454.74,151.41Zm.92,24.15a3,3,0,0,0,3.12,1.95h57.4a12.26,12.26,0,0,0,6.13-1.8,14.74,14.74,0,0,0,5-4.6l26.54-39.3q3.1-4.6,1.64-8.45c-1-2.57-3-3.85-6.17-3.85h-51a12.28,12.28,0,0,0-6.16,1.75,14.54,14.54,0,0,0-5,4.65l-11.7,17.3a4.51,4.51,0,0,0-.88,4.25,3,3,0,0,0,3.12,1.95h31.5a3,3,0,0,1,3.15,1.9,4.42,4.42,0,0,1-.86,4.2l-4.56,6.8a8.11,8.11,0,0,1-2.5,2.3,6,6,0,0,1-3.11.9h-11.7a1.37,1.37,0,0,1-1.28-.65,1.61,1.61,0,0,1,0-1.55,2.33,2.33,0,0,1,1-1.2,2.73,2.73,0,0,1,1.47-.5h9a6.1,6.1,0,0,0,3.06-.9,7,7,0,0,0,2.45-2.3l1.19-1.7a2.24,2.24,0,0,0,.43-2.1,1.47,1.47,0,0,0-1.55-1h-30.3a12,12,0,0,0-6.08,1.8,15.87,15.87,0,0,0-5.08,4.7l-7.62,11.3A4.45,4.45,0,0,0,455.66,175.56Zm135.85-26.65-1,1.5a7.41,7.41,0,0,1-2.57,2.35,6.23,6.23,0,0,1-3,.85h-7a6.16,6.16,0,0,0-3.07.9,7.79,7.79,0,0,0-2.58,2.4l-1.05,1.6a2.27,2.27,0,0,0-.45,2.15,1.51,1.51,0,0,0,1.57,1H604a12.1,12.1,0,0,0,6.17-1.8,14.89,14.89,0,0,0,5-4.6l15.82-23.4q3.1-4.6,1.64-8.45c-1-2.57-3-3.85-6.17-3.85h-51a12.22,12.22,0,0,0-6.15,1.75,14.49,14.49,0,0,0-5,4.65l-30.79,45.5a4.45,4.45,0,0,0-.74,4.15,3,3,0,0,0,3.12,1.95h57.4a12.26,12.26,0,0,0,6.13-1.8,14.74,14.74,0,0,0,5-4.6,4.14,4.14,0,0,0,.76-3.9,2.75,2.75,0,0,0-2.88-1.8h-35.7a2,2,0,0,1-2.06-1.25,2.92,2.92,0,0,1,.55-2.75l8.37-12.3a7.93,7.93,0,0,1,2.53-2.4,5.85,5.85,0,0,1,3-.9h11.3a1.48,1.48,0,0,1,1.56,1A2.39,2.39,0,0,1,591.51,148.91Zm-84.37,50.9-30.83,45.6a4.48,4.48,0,0,0-.74,4.15,2.9,2.9,0,0,0,3,1.95h57.5a11.91,11.91,0,0,0,5.51-1.45,14.67,14.67,0,0,0,4.73-3.85c.34-.4.63-.77.89-1.1L578,199.51a4.51,4.51,0,0,0,.88-4.25,3,3,0,0,0-3.12-1.95H560.59a12,12,0,0,0-6.07,1.8,15.87,15.87,0,0,0-5.08,4.7l-16.06,23.8H505a1.58,1.58,0,0,1-1.18-.5,1.19,1.19,0,0,1-.2-1.3,2.6,2.6,0,0,1,1-1.45,2.65,2.65,0,0,1,1.62-.65h12.3a6,6,0,0,0,3-.85,7.59,7.59,0,0,0,2.51-2.35l11.6-17a4.51,4.51,0,0,0,.88-4.25,3,3,0,0,0-3.12-1.95H518.3a12,12,0,0,0-6.08,1.8A15.87,15.87,0,0,0,507.14,199.81Zm146.12-90-3.64,3.6-.38.38a.28.28,0,0,0-.08.11L630.85,141l-20.55,30.4a4.45,4.45,0,0,0-.74,4.15,2.9,2.9,0,0,0,3,1.95h22l0-.1h9.5a6.16,6.16,0,0,0,3.07-.9,7,7,0,0,0,2.45-2.3l5.34-7.9a4.53,4.53,0,0,0,.87-4.25,3,3,0,0,0-3.12-1.95h-6.4l31.44-46.5a4.48,4.48,0,0,0,.74-4.15,2.9,2.9,0,0,0-3-1.95h-15.2a11.91,11.91,0,0,0-5.51,1.45A15.93,15.93,0,0,0,653.26,109.82ZM145.82,67.57c3.85-18,7-19,62.66-20.3C152.79,46,149.67,45,145.82,27,142,45,138.86,46,83.17,47.27,138.86,48.52,142,49.53,145.82,67.57Zm9.93,80.58,4.92-7.29a20.19,20.19,0,0,1,7-6.53,22.65,22.65,0,0,1,2.38-1.16,10.65,10.65,0,0,1,1.65-8.74l9.46-13.9a20.91,20.91,0,0,1,6.87-6.4,18.08,18.08,0,0,1,9.21-2.62h51a12.38,12.38,0,0,1,9.45,3.87c.28.26.56.54.82.83a10.57,10.57,0,0,1,.82.82,10.7,10.7,0,0,1,.83.82c.28.26.56.54.82.83a10.57,10.57,0,0,1,.82.82,96.26,96.26,0,0,1,1.65,1.65,10.57,10.57,0,0,1,.82.82,96.26,96.26,0,0,1,1.65,1.65,1.29,1.29,0,0,1,.17.16,16.68,16.68,0,0,1,3-.27h51a12.32,12.32,0,0,1,9.51,3.93,10.57,10.57,0,0,1,.82.82,9.29,9.29,0,0,1,.83.83c.25.23.49.47.73.72a21.56,21.56,0,0,1,5.08-4.06,18.17,18.17,0,0,1,9-2.54h57.5a9.13,9.13,0,0,1,7.1,3.06l3.87-5.72.16-.23c.3-.41.66-.85,1.07-1.34a20.84,20.84,0,0,1,6.6-5.35,17.87,17.87,0,0,1,8.26-2.12h15.2a9,9,0,0,1,6.92,3,8.13,8.13,0,0,1,.83.83,9.07,9.07,0,0,1,.82.82,96.26,96.26,0,0,1,1.65,1.65,9.07,9.07,0,0,1,.82.82,7.23,7.23,0,0,1,.83.83,7.93,7.93,0,0,1,.82.82,9.07,9.07,0,0,1,.82.82,8.13,8.13,0,0,1,.83.83,9.07,9.07,0,0,1,.82.82,7.93,7.93,0,0,1,.82.82,8.13,8.13,0,0,1,.83.83,9.07,9.07,0,0,1,.82.82,7.93,7.93,0,0,1,.82.82,8.13,8.13,0,0,1,.83.83,9.07,9.07,0,0,1,.82.82,9,9,0,0,1,2.55,3.69,10.44,10.44,0,0,1-1.37,9.56l-.59.88h1.09a9.28,9.28,0,0,1,6.59,2.51l8-11.77a20.46,20.46,0,0,1,6.95-6.5,18.25,18.25,0,0,1,9.14-2.54h51a12.35,12.35,0,0,1,9.47,3.89,96.26,96.26,0,0,0,1.65,1.65c.28.26.56.53.82.82l.11.1a20.92,20.92,0,0,1,4.91-3.92,18.25,18.25,0,0,1,9.14-2.54h51a12.32,12.32,0,0,1,9.55,4c.28.26.56.53.82.82a9.07,9.07,0,0,1,.82.82c.16.15.32.29.47.45l5.12-7.57C494.35,69,332.48,47.08,230.71,60.43,144.85,71.69,121.53,105.47,155.75,148.15Zm70.12,1.46a12.25,12.25,0,0,0,6.15-1.75,14.49,14.49,0,0,0,5-4.65l15.82-23.4q3.09-4.61,1.63-8.45c-1-2.57-3-3.85-6.16-3.85h-51a12.13,12.13,0,0,0-6.18,1.8,14.86,14.86,0,0,0-4.94,4.6l-9.39,13.8A4.64,4.64,0,0,0,176,132a3,3,0,0,0,3.13,1.95h51.5a1.57,1.57,0,0,1,1.17.5,1.17,1.17,0,0,1,.2,1.3,2.69,2.69,0,0,1-1,1.45,2.59,2.59,0,0,1-1.68.65h-52.6a12.36,12.36,0,0,0-6.11,1.75,14.35,14.35,0,0,0-5,4.65l-9.36,13.88-9,13.32a4.35,4.35,0,0,0-.84,4.15,3,3,0,0,0,3.12,1.95h18.5a5.82,5.82,0,0,0,3-.9,8.07,8.07,0,0,0,2.08-1.76h0c.21-.27,3.46-5.05,3.46-5.05l13.63-20.18h4.5l-.48,24.7a3.2,3.2,0,0,0,.9,2.3,3.35,3.35,0,0,0,2.49.9h18.4a6.46,6.46,0,0,0,4.48-1.95,5.58,5.58,0,0,0,2-4.15l.47-21.8Zm67.24,26.1a14.65,14.65,0,0,0,5-4.6l26.55-39.3q3.09-4.6,1.63-8.45c-1-2.57-3-3.85-6.17-3.85h-51a12.22,12.22,0,0,0-6.15,1.75,14.49,14.49,0,0,0-5,4.65l-11.7,17.3a4.51,4.51,0,0,0-.88,4.25,3,3,0,0,0,3.13,1.95H280a3,3,0,0,1,3.14,1.9,4.42,4.42,0,0,1-.86,4.2l-4.56,6.8a8.11,8.11,0,0,1-2.5,2.3,6,6,0,0,1-3.11.9h-11.7a1.37,1.37,0,0,1-1.28-.65,1.64,1.64,0,0,1,0-1.55,2.33,2.33,0,0,1,1-1.2,2.73,2.73,0,0,1,1.47-.5h9a6.1,6.1,0,0,0,3.06-.9,7,7,0,0,0,2.45-2.3l1.19-1.7a2.22,2.22,0,0,0,.43-2.1,1.46,1.46,0,0,0-1.55-1H246a12,12,0,0,0-6.08,1.8,15.87,15.87,0,0,0-5.08,4.7l-7.62,11.3a4.48,4.48,0,0,0-.74,4.15,3,3,0,0,0,3.12,1.95H287A12.26,12.26,0,0,0,293.11,175.71Zm79.45-10.8a12.33,12.33,0,0,0,6.1-1.75,14.38,14.38,0,0,0,5-4.65l22.22-33.2a4.35,4.35,0,0,0,.84-4.15,3,3,0,0,0-3.12-2h-57.5a12.1,12.1,0,0,0-6.06,1.75,15.33,15.33,0,0,0-5.06,4.65L323.46,143a4.51,4.51,0,0,0-.76,4.2,2.93,2.93,0,0,0,3,1.9h49.7a1.55,1.55,0,0,1,1.23.5,1.27,1.27,0,0,1,.15,1.3,2.68,2.68,0,0,1-1,1.5,2.58,2.58,0,0,1-1.65.6h-50.7a12.13,12.13,0,0,0-6.18,1.8,14.86,14.86,0,0,0-5,4.7L296,183.41a4.35,4.35,0,0,0-.84,4.15,3,3,0,0,0,3.13,1.95h15.2a11.56,11.56,0,0,0,5.45-1.45,16,16,0,0,0,4.79-3.85,6.7,6.7,0,0,0,.78-1.1l12.52-18.2Zm20.36,80.2,14.19-21q3.09-4.61,1.63-8.45c-1-2.57-3.06-3.85-6.26-3.85H359.07a1.52,1.52,0,0,1-1.22-.5,1.4,1.4,0,0,1-.25-1.3,2.58,2.58,0,0,1,1-1.45,2.78,2.78,0,0,1,1.73-.65h54.3a6.1,6.1,0,0,0,3.06-.9,8,8,0,0,0,2.55-2.3l7.28-10.9q3.11-4.6,1.64-8.45c-1-2.57-3-3.85-6.17-3.85H372a12.1,12.1,0,0,0-6.17,1.8,14.89,14.89,0,0,0-4.95,4.6l-20.07,29.6a4.64,4.64,0,0,0-.78,4.25,3,3,0,0,0,3.12,2h49.6a1.53,1.53,0,0,1,1.23.5,1.31,1.31,0,0,1,.28,1.2,2.73,2.73,0,0,1-1,1.55,2.68,2.68,0,0,1-1.63.65h-50.8a12.1,12.1,0,0,0-6.06,1.75,15.53,15.53,0,0,0-5.06,4.65L322,245.41a4.35,4.35,0,0,0-.84,4.15,3,3,0,0,0,3.13,1.95h57.5a12,12,0,0,0,6.07-1.8A15.94,15.94,0,0,0,392.92,245.11Zm8.57,6.4H459a12.24,12.24,0,0,0,6.13-1.8,14.78,14.78,0,0,0,5-4.6l26.71-39.5q3.06-4.5,1.61-8.4t-6.24-3.9h-51a12,12,0,0,0-6.08,1.8,15.87,15.87,0,0,0-5.08,4.7l-30.83,45.6a4.48,4.48,0,0,0-.74,4.15A2.9,2.9,0,0,0,401.49,251.51Zm489.16-40.79-21.56,31.89,0,.06a9.18,9.18,0,0,1,.82.83,7.93,7.93,0,0,1,.82.82,9,9,0,0,1,2.5,3.65,10.35,10.35,0,0,1-1.58,9.77l-5.25,7.77a12.89,12.89,0,0,1-4.47,4.2,12,12,0,0,1-6.05,1.7h-8.45a5.6,5.6,0,0,1-1.09.1h-22a9.31,9.31,0,0,1-5.95-2l-.36.21a12,12,0,0,1-6.05,1.7h-8.45a5.6,5.6,0,0,1-1.09.1h-22a9,9,0,0,1-7-3,9.17,9.17,0,0,1-.83-.82c-.12-.11-.25-.2-.36-.32a23.78,23.78,0,0,1-2.34,1.56,18.21,18.21,0,0,1-9.12,2.6h-57.4a9.16,9.16,0,0,1-7-3,14.81,14.81,0,0,1-1.83,1.26,12.07,12.07,0,0,1-6.06,1.7h-18.5a9.12,9.12,0,0,1-7-3,8,8,0,0,1-.83-.82,9.07,9.07,0,0,1-.82-.82,96.26,96.26,0,0,0-1.65-1.65,9.07,9.07,0,0,1-.82-.82,9.32,9.32,0,0,1-.77-.77l-1.36,2a12.77,12.77,0,0,1-4.46,4.2,12.07,12.07,0,0,1-6.06,1.7h-18.5a9.13,9.13,0,0,1-7-3,8,8,0,0,1-.83-.82,9.07,9.07,0,0,1-.82-.82,8,8,0,0,1-.82-.83,13.24,13.24,0,0,1-4.1,3.69,12.07,12.07,0,0,1-6.06,1.7h-8.45a5.6,5.6,0,0,1-1.09.1h-22a9,9,0,0,1-6.92-3,8.13,8.13,0,0,1-.83-.83,10200434318965.41,10200434318965.41,0,0,1-1.64-1.64,8.13,8.13,0,0,1-.83-.83,9.07,9.07,0,0,1-.82-.82l-.5-.47-.1.11a20.57,20.57,0,0,1-6.6,5.35,17.81,17.81,0,0,1-8.26,2.12h-57.5a9,9,0,0,1-6.95-3,9.17,9.17,0,0,1-.83-.82c-.12-.11-.25-.2-.36-.32a22.65,22.65,0,0,1-2.34,1.56,18.21,18.21,0,0,1-9.12,2.6h-57.5a9,9,0,0,1-6.95-3,7.93,7.93,0,0,1-.82-.82c-.15-.13-.3-.25-.44-.39a22,22,0,0,1-2.38,1.61,19.52,19.52,0,0,1-4.68,2c142.89,30.69,301.58,41.82,405.13,24.56C894.58,280.58,921.91,248.12,890.65,210.72Zm108.18,90c-55.7-1.25-58.81-2.26-62.66-20.3-3.84,18-7,19.05-62.66,20.3,55.7,1.24,58.82,2.25,62.66,20.3C940,303,943.13,302,998.83,300.73ZM762.91,279.21c-2,9.35-3.61,9.87-32.48,10.52,28.87.64,30.49,1.17,32.48,10.52,2-9.35,3.61-9.88,32.48-10.52C766.52,289.08,764.9,288.56,762.91,279.21Zm-41.69-5.92c-1.45,6.77-2.61,7.14-23.49,7.61,20.88.47,22,.85,23.49,7.61,1.44-6.76,2.61-7.14,23.48-7.61C723.83,280.43,722.66,280.06,721.22,273.29ZM452.93,214.22h-14a8.85,8.85,0,0,0-4.38,1.22,9.82,9.82,0,0,0-3.48,3.23l-10.32,15.21a3,3,0,0,0-.56,3,2.19,2.19,0,0,0,2.27,1.36h14.17a8.65,8.65,0,0,0,4.32-1.25,10.94,10.94,0,0,0,3.56-3.27l10.24-15.21a3,3,0,0,0,.47-2.89A2.2,2.2,0,0,0,452.93,214.22Z" transform="translate(-0.26 -0.12)"/></svg>