<svg id="Camada_1" data-name="Camada 1" xmlns="http://www.w3.org/2000/svg" viewBox="0 0 1262.79 135.79"><path d="M108.1,35.42V45c0,2.11-.69,3.06-2,3.06H93.72c-1.16,0-1.85-1-1.85-3.06V37.53c0-9.79-2.18-13.24-7.59-13.24h-55c-5.41,0-8.74,3.45-8.74,13.24V99.28c0,9.79,3.33,13.24,8.74,13.24H84.16c5.41,0,7.71-3.26,7.71-13.24V96.41c0-2.11.69-3.07,1.85-3.07h12.42c1.27,0,2,1,2,3.07v5c0,22.25-6.21,34.91-20.48,34.91h-62c-14.27,0-21.29-12.85-21.29-34.91v-66C4.3,13.36,11.32.51,25.59.51h62C101.89.51,108.1,13.36,108.1,35.42Zm103.15,95.32c1,2.68-.23,4.79-2.07,4.79H197.67c-1.38,0-2.19-1.15-3-3.07l-13.24-32.6H129.08v32.8c0,1.91-.69,2.87-1.84,2.87H114.58c-1.15,0-1.72-1-1.72-2.87V4.15c0-1.92.57-2.87,1.72-2.87h75c14.27,0,20.6,12.85,20.6,34.9V65c0,17.07-3.79,28.58-12.08,33ZM194,38.1c0-9.59-2.54-13-7.94-13h-57V76.27h57c5.4,0,7.94-3.65,7.94-13.24Zm116.2,73.65H234V80.3h74.46c1.15,0,1.72-1,1.72-2.88v-18c0-1.92-.57-2.88-1.72-2.88H234V25.06h75.61c1.15,0,1.72-1,1.72-2.88v-18c0-1.92-.57-2.87-1.72-2.87H219.51c-1.15,0-1.73,1-1.73,2.87V132.66c0,1.91.58,2.87,1.73,2.87h90.68c1.15,0,1.73-1,1.73-2.87v-18C311.92,112.71,311.34,111.75,310.19,111.75ZM435.08,131.7c1,2.3.23,3.83-.92,3.83H419.31c-1.26,0-1.84-1.15-2.64-3.26l-7.37-19H343.36l-7.36,19c-.81,2.11-1.27,3.26-2.65,3.26H318.62c-1.15,0-2-1.53-1-3.83L367.07,4.34c.69-1.91,1.26-3.06,2.53-3.06h13.58c1.15,0,1.72,1.15,2.41,3.06ZM400.32,90.08,377.08,29.85h-1.5L352.34,90.08ZM504.16,1.28H406c-1.15,0-1.73,1-1.73,2.87V22c0,1.92.58,3.07,1.73,3.07h41.19v107.6c0,1.91.58,2.87,1.73,2.87h12.31c1.15,0,1.85-1,1.85-2.87V25.06h41.08c1.15,0,1.72-1.15,1.72-3.07V4.15C505.88,2.23,505.31,1.28,504.16,1.28Zm21.43,0H512.94c-1.15,0-1.73,1-1.73,2.87V132.66c0,1.91.58,2.87,1.73,2.87h12.65c1.16,0,1.85-1,1.85-2.87V4.15C527.44,2.23,526.75,1.28,525.59,1.28Zm123.52,0H634.26c-1.26,0-1.84,1.15-2.64,3.26L592,107h-1.49L551,4.54c-.81-2.11-1.27-3.26-2.65-3.26H533.57c-1.15,0-2,1.53-1,3.83L582,132.46c.69,1.92,1.27,3.07,2.53,3.07h13.58c1.15,0,1.73-1.15,2.42-3.07L650,5.11C651.07,2.81,650.26,1.28,649.11,1.28Zm97.56,110.47H670.49V80.3H745c1.15,0,1.72-1,1.72-2.88v-18c0-1.92-.57-2.88-1.72-2.88H670.49V25.06H746.1c1.15,0,1.72-1,1.72-2.88v-18c0-1.92-.57-2.87-1.72-2.87H656c-1.15,0-1.72,1-1.72,2.87V132.66c0,1.91.57,2.87,1.72,2.87h90.68c1.15,0,1.73-1,1.73-2.87v-18C748.4,112.71,747.82,111.75,746.67,111.75Zm78.73-93.9V49.18c0,10.73-3.08,17-10,17H774.6c-.56,0-.84-.46-.84-1.4V2.28c0-.93.28-1.4.84-1.4h40.78C822.32.88,825.4,7.13,825.4,17.85Zm-7.84.93c0-4.66-1.23-6.34-3.91-6.34h-32V54.59h32c2.68,0,3.91-1.68,3.91-6.43Zm15.8,47.37h44.09c.56,0,.84-.46.84-1.4V56c0-.93-.28-1.4-.84-1.4h-37V39.3h36.2c.56,0,.84-.47.84-1.4V29.13c0-.93-.28-1.39-.84-1.39h-36.2V12.44h36.76c.56,0,.84-.46.84-1.39V2.28c0-.93-.28-1.4-.84-1.4H833.36c-.56,0-.84.47-.84,1.4V64.75C832.52,65.69,832.8,66.15,833.36,66.15Zm88-11.19H896c-2.35,0-3.8-1.58-4.19-4.85-.11-1.3-.56-2-1.46-2h-5c-.83,0-1.28.75-1.28,2,0,10.45,3.19,16.42,11,16.42h26.63c7.94,0,11.92-5.32,11.92-18.19,0-11.47-3.58-18.27-11.81-19L896.6,27.08c-4-.37-4.75-3.91-4.75-8,0-5,1.57-7,4.64-7h24.45c2.29,0,3.75,1.59,4.14,4.85.17,1.31.62,2,1.46,2h5c.9,0,1.29-.74,1.29-2,0-10.44-3.13-16.41-11-16.41H896c-7.94,0-11.91,5.31-11.91,18.18,0,11.47,3.58,18.28,11.8,19L921.22,40c4,.37,4.76,3.92,4.76,8C926,53,924.41,55,921.33,55Zm27.38,9.79V2.28c0-.93-.33-1.4-.89-1.4h-6.16c-.56,0-.84.47-.84,1.4V64.75c0,.94.28,1.4.84,1.4h6.16C948.38,66.15,948.71,65.69,948.71,64.75Zm57.59-15.19V33.8c0-1.22-.44-2-1.23-2H982.86c-.84,0-1.23.65-1.23,2.05v7.46c0,1.31.39,2,1.23,2h15.56v5.13c0,4.75-1.23,6.43-3.92,6.43H968c-2.63,0-4.25-1.68-4.25-6.43v-30c0-4.75,1.62-6.43,4.25-6.43h26.63c2.63,0,3.69,1.68,3.69,6.43v3.64c0,1,.28,1.49.9,1.49h6c.62,0,1-.46,1-1.49V17.48c0-10.72-3-17-10-17h-30c-6.94,0-10.35,6.25-10.35,17V49.56c0,10.72,3.41,17,10.35,17h30.1C1003.23,66.53,1006.3,60.28,1006.3,49.56Zm55.19,16.59c.56,0,.84-.46.84-1.4V2.28c0-.93-.28-1.4-.84-1.4h-6.15c-.56,0-.9.47-.9,1.4V50.77h-.67L1022.66,1.91c-.5-.66-.72-1-1.23-1H1014c-.56,0-.84.47-.84,1.4V64.75c0,.94.28,1.4.84,1.4h6.16c.55,0,.89-.46.89-1.4V16.27h.67l31.11,48.86c.5.65.73,1,1.23,1Zm9.08,0h44.09c.56,0,.84-.46.84-1.4V56c0-.93-.28-1.4-.84-1.4h-37V39.3h36.2c.56,0,.84-.47.84-1.4V29.13c0-.93-.28-1.39-.84-1.39h-36.2V12.44h36.76c.56,0,.84-.46.84-1.39V2.28c0-.93-.28-1.4-.84-1.4h-43.81c-.55,0-.83.47-.83,1.4V64.75C1069.74,65.69,1070,66.15,1070.57,66.15Zm98.6,0h-5.59c-.67,0-1.06-.56-1.45-1.49l-6.44-15.85h-25.45V64.75c0,.94-.34,1.4-.9,1.4h-6.15c-.56,0-.84-.46-.84-1.4V2.28c0-.93.28-1.4.84-1.4h36.47c6.94,0,10,6.25,10,17v14c0,8.3-1.85,13.89-5.88,16l6.38,15.94C1170.69,65.13,1170.07,66.15,1169.17,66.15Zm-7.38-47.37c0-4.66-1.23-6.34-3.86-6.34h-27.69v24.9h27.69c2.63,0,3.86-1.77,3.86-6.43ZM825.4,87.26v31.33c0,10.72-3.08,17-10,17H774.6c-.56,0-.84-.47-.84-1.4V71.69c0-.93.28-1.4.84-1.4h40.78C822.32,70.29,825.4,76.54,825.4,87.26Zm-7.84.93c0-4.66-1.23-6.34-3.91-6.34h-32V124h32c2.68,0,3.91-1.68,3.91-6.43ZM877.66,124h-37V108.71h36.2c.55,0,.84-.47.84-1.4V98.54c0-.93-.29-1.4-.84-1.4h-36.2V81.85h36.75c.56,0,.84-.46.84-1.4V71.69c0-.93-.28-1.4-.84-1.4h-43.8c-.56,0-.84.47-.84,1.4v62.47c0,.93.28,1.4.84,1.4h44.09c.55,0,.83-.47.83-1.4V125.4C878.49,124.46,878.21,124,877.66,124ZM941,70.29h-7.22c-.61,0-.89.56-1.28,1.59l-19.25,49.79h-.73L893.27,71.88c-.39-1-.62-1.59-1.29-1.59h-7.16c-.56,0-1,.75-.5,1.86l24,61.92c.34.93.62,1.49,1.24,1.49h6.6c.56,0,.84-.56,1.17-1.49l24.06-61.92C941.94,71,941.55,70.29,941,70.29ZM992.75,124h-37V108.71h36.2c.56,0,.84-.47.84-1.4V98.54c0-.93-.28-1.4-.84-1.4h-36.2V81.85h36.76c.56,0,.84-.46.84-1.4V71.69c0-.93-.28-1.4-.84-1.4H948.66c-.56,0-.84.47-.84,1.4v62.47c0,.93.28,1.4.84,1.4h44.09c.56,0,.84-.47.84-1.4V125.4C993.59,124.46,993.31,124,992.75,124Zm53.71,0h-37.2V71.69c0-.93-.34-1.4-.9-1.4h-6.15c-.56,0-.84.47-.84,1.4v62.47c0,.93.28,1.4.84,1.4h44.25c.56,0,.84-.47.84-1.4v-8.67C1047.3,124.56,1047,124,1046.46,124Zm57.8-37.11V119c0,10.73-3.47,17-10.41,17h-29.71c-6.93,0-10.35-6.24-10.35-17V86.89c0-10.73,3.42-17,10.35-17h29.71C1100.79,69.92,1104.26,76.16,1104.26,86.89Zm-7.89,1c0-4.75-1.62-6.43-4.25-6.43h-26.19c-2.62,0-4.25,1.68-4.25,6.43v30c0,4.75,1.63,6.43,4.25,6.43h26.19c2.63,0,4.25-1.68,4.25-6.43Zm62.55-.65v18c0,10.72-3.07,17-10,17h-29.43v11.93c0,.93-.34,1.4-.89,1.4h-6.16c-.56,0-.84-.47-.84-1.4V71.69c0-.93.28-1.4.84-1.4h36.48C1155.85,70.29,1158.92,76.54,1158.92,87.26Zm-7.89.93c0-4.66-1.23-6.34-3.86-6.34h-27.69v28.91h27.69c2.63,0,3.86-1.77,3.86-6.44ZM1211.18,124h-37V108.71h36.19c.56,0,.84-.47.84-1.4V98.54c0-.93-.28-1.4-.84-1.4h-36.19V81.85h36.75c.56,0,.84-.46.84-1.4V71.69c0-.93-.28-1.4-.84-1.4h-43.8c-.56,0-.84.47-.84,1.4v62.47c0,.93.28,1.4.84,1.4h44.08c.56,0,.84-.47.84-1.4V125.4C1212,124.46,1211.74,124,1211.18,124Zm54.72,11.56h-5.59c-.67,0-1.06-.56-1.46-1.49l-6.43-15.85H1227v15.94c0,.93-.33,1.4-.89,1.4h-6.15c-.56,0-.84-.47-.84-1.4V71.69c0-.93.28-1.4.84-1.4h36.47c6.94,0,10,6.25,10,17v14c0,8.3-1.85,13.89-5.88,16l6.38,15.94C1267.41,134.54,1266.8,135.56,1265.9,135.56Zm-7.38-47.37c0-4.66-1.23-6.34-3.86-6.34H1227v24.9h27.7c2.63,0,3.86-1.77,3.86-6.44Z" transform="translate(-4.3 -0.51)"/></svg>